<?xml version="1.0" encoding="UTF-8" standalone="no"?>
<!-- Created with Inkscape (http://www.inkscape.org/) -->

<svg
   width="90mm"
   height="25mm"
   viewBox="0 0 90 25"
   version="1.1"
   id="svg8479"
   inkscape:version="1.1.2 (1:1.1+202202050950+0a00cf5339)"
   sodipodi:docname="av-logo-footer.svg"
   xmlns:inkscape="http://www.inkscape.org/namespaces/inkscape"
   xmlns:sodipodi="http://sodipodi.sourceforge.net/DTD/sodipodi-0.dtd"
   xmlns="http://www.w3.org/2000/svg"
   xmlns:svg="http://www.w3.org/2000/svg">
  <sodipodi:namedview
     id="namedview8481"
     pagecolor="#ffffff"
     bordercolor="#666666"
     borderopacity="1.0"
     inkscape:pageshadow="2"
     inkscape:pageopacity="0.0"
     inkscape:pagecheckerboard="0"
     inkscape:document-units="mm"
     showgrid="false"
     inkscape:zoom="2.5532292"
     inkscape:cx="188.97638"
     inkscape:cy="47.195137"
     inkscape:window-width="1920"
     inkscape:window-height="2132"
     inkscape:window-x="1920"
     inkscape:window-y="28"
     inkscape:window-maximized="1"
     inkscape:current-layer="layer1" />
  <defs
     id="defs8476" />
  <g
     inkscape:label="Layer 1"
     inkscape:groupmode="layer"
     id="layer1">
    <g
       id="g8977"
       transform="translate(-86.815181,-136)">
      <path
         style="fill:#000000;fill-opacity:1;fill-rule:evenodd;stroke:none;stroke-width:0.0162571"
         d="m 94.554832,151.17611 c 0.28208,0.12161 0.36902,0.2871 0.38363,0.46771 0.0317,0.37194 -0.28629,0.66101 -0.24323,0.99543 -0.81996,-0.66622 -0.56963,-1.2511 -0.1404,-1.46314 z m 7.636218,-11.42795 c 0.13673,0.0717 0.22855,0.0542 0.30431,0.003 0.15496,-0.10535 0.16715,-0.32038 0.31086,-0.40941 -0.51864,-0.10961 -0.66819,0.17331 -0.61517,0.407 z m 1.38453,3.2e-4 c -0.13673,0.0716 -0.22855,0.0535 -0.30399,0.002 -0.15477,-0.10535 -0.16734,-0.32069 -0.31111,-0.40959 0.51851,-0.10949 0.66831,0.17311 0.6151,0.40731 z m -0.86836,0.0632 c -0.087,0.28101 0.42535,1.09379 -0.33023,1.28171 -0.0625,-0.022 -0.17539,-0.17763 -0.19584,-0.32775 -0.0561,-0.41043 0.27617,-0.704 0.52607,-0.95396 z m 0.35194,0 c 0.0878,0.2812 -0.42549,1.0936 0.33041,1.28151 0.0628,-0.022 0.17572,-0.17793 0.19617,-0.32755 0.0559,-0.41043 -0.27593,-0.70413 -0.52658,-0.95396 z m -2.06001,3.31092 c -0.29175,-0.0818 -0.39913,-0.23199 -0.438,-0.4063 -0.0798,-0.36033 0.19268,-0.6856 0.10574,-1.00648 0.89103,0.5422 0.72426,1.14841 0.33226,1.41278 z m -4.993768,4.3245 c 0.31385,0 0.46263,-0.12028 0.55002,-0.28361 0.18054,-0.33682 -0.001,-0.73678 0.1747,-1.03359 -1.03976,0.29339 -1.04192,0.94418 -0.72472,1.3172 z m 5.271278,-4.23992 c 0.15291,0.10282 0.26411,0.0935 0.35981,0.0429 0.19813,-0.10466 0.24157,-0.35779 0.42338,-0.44358 -0.60018,-0.19884 -0.81451,0.11602 -0.78319,0.40064 z m -6.435998,0.65835 c -0.15133,-0.29873 -0.3369,-0.38223 -0.53407,-0.38655 -0.4075,-0.01 -0.70051,0.35569 -1.06744,0.33131 0.77945,0.84726 1.40008,0.53634 1.60151,0.0552 z m 1.51953,-2.2154 c -0.1575,0.33923 -0.36185,0.43938 -0.5817,0.45227 -0.45425,0.0255 -0.79616,-0.37093 -1.20404,-0.32876 0.83749,-0.97675 1.54169,-0.65263 1.78574,-0.12351 z m -0.91186,6.90683 c -0.0477,-0.2556 -0.16765,-0.35854 -0.3139,-0.40471 -0.30171,-0.0964 -0.60094,0.11158 -0.86886,0.0131 0.3962,0.80327 0.92697,0.70686 1.18276,0.39163 z m 1.667866,-6.66082 c -0.19096,-0.10961 -0.323866,-0.0887 -0.433726,-0.0199 -0.22741,0.14245 -0.25745,0.44955 -0.46809,0.56843 0.735946,0.18518 0.964946,-0.21032 0.901816,-0.54855 z m -2.721906,1.31263 c -0.10738,0.12161 -0.20518,0.13876 -0.29879,0.11685 -0.19185,-0.0453 -0.28627,-0.25262 -0.46135,-0.2852 0.46929,-0.30438 0.72337,-0.0827 0.76014,0.16835 z m 4.524397,-0.70076 c -0.16422,-0.0942 -0.27871,-0.0767 -0.37359,-0.0171 -0.195587,0.12231 -0.221057,0.38674 -0.402047,0.48885 0.632757,0.1594 0.829994,-0.18086 0.775637,-0.4717 z m 3.253941,-0.5871 c -0.14707,-0.0846 -0.24982,-0.0688 -0.33473,-0.0153 -0.17508,0.10948 -0.19851,0.34661 -0.36063,0.43824 0.56747,0.14288 0.74432,-0.16232 0.69536,-0.42293 z m -8.734078,3.76935 c -0.21064,0.0385 -0.32558,-0.024 -0.40376,-0.12282 -0.16168,-0.20436 -0.0894,-0.49552 -0.24278,-0.67276 0.73348,0.0704 0.81407,0.50753 0.64654,0.79558 z m 1.33022,1.05658 c 0.16848,-0.0823 0.21687,-0.18644 0.22023,-0.29612 0.008,-0.22785 -0.19432,-0.395 -0.178,-0.59986 -0.47977,0.43049 -0.3097,0.78002 -0.0422,0.89598 z m 2.117166,-1.97656 c 0.18511,0.015 0.27923,-0.0491 0.33771,-0.14137 0.12206,-0.19095 0.0329,-0.43544 0.150447,-0.6024 -0.626913,0.12555 -0.658223,0.50975 -0.488157,0.74377 z m -3.567346,4.21844 c -0.0473,-0.25617 -0.16765,-0.35892 -0.3139,-0.40496 -0.3017,-0.0966 -0.60094,0.11126 -0.8688,0.0134 0.39614,0.80326 0.9269,0.70642 1.1827,0.39163 z m 0.58297,4.54747 c -0.16504,0.1312 -0.19305,0.2565 -0.17051,0.37912 0.0455,0.25275 0.30888,0.38694 0.33981,0.61644 0.42421,-0.5885 0.15336,-0.93199 -0.1693,-0.99556 z m 0.52575,-4.028 c -0.16378,-0.0769 -0.27167,-0.0506 -0.35727,0.0134 -0.17724,0.13215 -0.18061,0.38623 -0.34522,0.49826 0.616,0.10192 0.77736,-0.23834 0.70249,-0.51159 z m 6.010578,-2.99657 c 0.076,0.19902 0.18848,0.26405 0.31263,0.27955 0.25618,0.0326 0.46594,-0.17895 0.69538,-0.13921 -0.43672,-0.58697 -0.8488,-0.431 -1.00801,-0.14034 z m -6.666698,0.35226 c 0.0275,0.31403 -0.0794,0.47323 -0.2349,0.57497 -0.32134,0.21 -0.73805,0.0638 -1.01887,0.26614 0.201,-1.06674 0.85255,-1.12644 1.25377,-0.84111 z m 5.026337,-0.52436 c 0.201047,0.17382 0.229437,0.33289 0.195207,0.48473 -0.0706,0.31486 -0.407887,0.47114 -0.458497,0.75786 -0.503587,-0.76179 -0.145417,-1.17889 0.26329,-1.24259 z m -3.600807,4.43037 c -0.18428,0.1117 -0.22899,0.23459 -0.22232,0.36153 0.0138,0.2624 0.26157,0.43291 0.26366,0.66914 0.50658,-0.54035 0.27714,-0.92404 -0.0413,-1.03067 z m 6.445208,-12.13869 c 0.17261,-0.0419 0.2382,-0.12764 0.26412,-0.22938 0.0534,-0.20867 -0.0995,-0.40407 -0.0431,-0.59007 -0.53076,0.30006 -0.44465,0.65783 -0.22106,0.81945 z m -2.100527,2.8293 c 0.16429,0.0673 0.26792,0.0366 0.34858,-0.0302 0.165937,-0.13743 0.157547,-0.38553 0.312627,-0.50219 -0.606017,-0.0701 -0.746864,0.2697 -0.661207,0.53235 z m -3.102601,-0.29904 c 0.18347,-0.11907 0.22526,-0.24551 0.21439,-0.37404 -0.0225,-0.26493 -0.28005,-0.43068 -0.28964,-0.66984 -0.49648,0.56468 -0.25116,0.94609 0.0752,1.04388 z m 2.734034,-0.18257 c 0.28627,-0.0815 0.390357,-0.22957 0.428017,-0.40116 0.0764,-0.35391 -0.192297,-0.67206 -0.10873,-0.98724 -0.872214,0.53636 -0.705454,1.1307 -0.319287,1.3884 z M 94.989452,152.259 c -0.0869,0.1538 -0.0698,0.25948 -0.0138,0.34775 0.1145,0.18175 0.36109,0.20467 0.45673,0.37277 0.14586,-0.59015 -0.17217,-0.77234 -0.44295,-0.72052 z m 4.119874,-3.8406 c -0.087,0.15367 -0.0698,0.25985 -0.0138,0.34794 0.11457,0.18193 0.36115,0.20435 0.456847,0.37245 0.14581,-0.59008 -0.172217,-0.7719 -0.442997,-0.72039 z m -2.916724,-3.3621 c 0.0223,0.25224 -0.0634,0.38007 -0.18886,0.46205 -0.25828,0.16867 -0.59307,0.051 -0.8187,0.21344 0.16175,-0.85667 0.6854,-0.90456 1.00756,-0.67549 z m -1.04604,9.52632 c 0.16048,0.004 0.2349,0.0657 0.27796,0.14922 0.0886,0.1735 -0.007,0.37576 0.0794,0.52792 -0.52696,-0.158 -0.52201,-0.48987 -0.35734,-0.67714 z m 1.3332,-5.56754 c 0.0714,0.17298 0.17134,0.22823 0.28082,0.23896 0.226966,0.0231 0.407056,-0.1679 0.610203,-0.1378 -0.397467,-0.5074 -0.756903,-0.36108 -0.891023,-0.10116 z m 2.052377,-8.98463 c 0.28463,-0.0987 0.3816,-0.25376 0.409547,-0.42897 0.0577,-0.36133 -0.231477,-0.6673 -0.165057,-0.99073 -0.850057,0.59059 -0.648177,1.18099 -0.24449,1.4197 z m -2.974327,3.5911 c 0.27123,-0.10174 0.36147,-0.25288 0.38369,-0.42205 0.0472,-0.34883 -0.23789,-0.63625 -0.18143,-0.94869 -0.80364,0.58786 -0.59592,1.15076 -0.20226,1.37074 z m 4.936088,0.15907 c -0.051,0.28431 -0.1839,0.40015 -0.34648,0.4526 -0.335167,0.10846 -0.668687,-0.1213 -0.965824,-0.01 0.435067,-0.89534 1.025974,-0.791 1.312304,-0.44268 z m -3.510162,2.7324 c 0.007,0.40046 -0.10949,0.9732 0.28297,1.23636 0.135387,0.0904 0.341837,0.10434 0.394107,0.0774 0.0639,-0.0328 0.16257,-0.21896 0.16129,-0.38452 -0.003,-0.45348 -0.528287,-0.69676 -0.838367,-0.92925 z m -2.230396,8.78382 c -0.20061,-0.23445 -0.5596,-0.50612 -0.46726,-0.85794 0.0322,-0.12122 0.14415,-0.23439 0.18809,-0.24575 0.0539,-0.0142 0.20512,0.0434 0.28958,0.13964 0.22944,0.26316 0.0502,0.67187 -0.0104,0.96405 z m 3.21628,-5.9758 c 0.12371,-0.32431 0.19808,-0.82491 0.595537,-0.92322 0.13711,-0.0338 0.30972,0.0158 0.34394,0.053 0.0431,0.0458 0.0677,0.22608 0.018,0.36102 -0.13621,0.3687 -0.636047,0.41131 -0.957447,0.50918 z m -1.107054,-9.11837 c 0.30132,0.26444 0.812467,0.54633 0.759377,1.01613 -0.0184,0.16143 -0.14212,0.32769 -0.1956,0.35036 -0.0669,0.0276 -0.272047,-0.0181 -0.398287,-0.12631 -0.343556,-0.29492 -0.18892,-0.85363 -0.16549,-1.24018 z m 1.394154,3.56836 c 0.007,0.38897 -0.10656,0.94488 0.275037,1.20068 0.1312,0.0877 0.33136,0.1011 0.38236,0.0752 0.0623,-0.0317 0.157617,-0.2123 0.156727,-0.37341 -0.002,-0.44059 -0.513177,-0.67682 -0.814124,-0.90246 z m -5.91399,6.68673 c 0.15666,-0.37702 0.26157,-0.96214 0.73137,-1.06375 0.16213,-0.0354 0.36318,0.0285 0.40249,0.0732 0.048,0.0557 0.071,0.26875 0.009,0.42547 -0.17261,0.42808 -0.76193,0.46136 -1.14263,0.56512 z m 6.779554,-11.97103 c 0.32641,0.0325 0.801917,-0.0242 0.990404,0.31415 0.0656,0.11634 0.0636,0.28603 0.0381,0.32705 -0.0313,0.0501 -0.190197,0.11787 -0.325587,0.10656 -0.370287,-0.0325 -0.534067,-0.47837 -0.702917,-0.74776 z m 2.540984,6.92627 c -0.12543,-0.25599 -0.38414,-0.58043 -0.22029,-0.87369 0.0564,-0.10135 0.18218,-0.17667 0.22397,-0.17604 0.0515,-1.3e-4 0.17349,0.086 0.22696,0.19083 0.14416,0.28774 -0.10947,0.61187 -0.23064,0.8589 z m -8.241858,8.11811 c 0.32596,-0.20562 0.85133,-0.39696 0.87133,-0.84924 0.006,-0.15622 -0.0852,-0.33181 -0.13456,-0.36026 -0.0576,-0.0368 -0.25909,-0.0234 -0.39493,0.0593 -0.36864,0.2283 -0.30596,0.78084 -0.34184,1.15018 z m 1.56632,-5.56004 c 0.18976,0.0606 0.44098,0.20486 0.62653,0.0614 0.0639,-0.0497 0.10276,-0.14428 0.0982,-0.17311 -0.005,-0.0355 -0.0773,-0.11081 -0.15552,-0.13691 -0.2135,-0.0698 -0.41119,0.13983 -0.56919,0.24861 z m -1.88937,4.61891 c 0.0556,-0.31765 0.036,-0.78726 0.38153,-0.94614 0.11914,-0.0553 0.28418,-0.0402 0.32261,-0.0122 0.0468,0.0346 0.1016,0.19432 0.0794,0.32596 -0.0593,0.36026 -0.50777,0.48689 -0.78357,0.63238 z m 4.318333,-12.19444 c 0.26583,-0.07 0.621897,-0.25173 0.868097,-0.0413 0.0848,0.0726 0.132027,0.20588 0.12409,0.24538 -0.01,0.0489 -0.1145,0.14803 -0.22404,0.17788 -0.29962,0.082 -0.557497,-0.21992 -0.768147,-0.38192 z m 2.171968,-0.68496 c 0.26575,-0.07 0.621887,-0.25166 0.868027,-0.0413 0.0848,0.0726 0.13202,0.20588 0.12415,0.24538 -0.0101,0.0489 -0.11456,0.14803 -0.22404,0.17775 -0.29961,0.0822 -0.557497,-0.21979 -0.768137,-0.38179 z m -3.407311,11.55464 c -0.26538,-0.15349 -0.69041,-0.29002 -0.71924,-0.65041 -0.0101,-0.1244 0.0581,-0.26646 0.0957,-0.29122 0.0455,-0.0313 0.20645,-0.0268 0.31676,0.0355 0.30133,0.17134 0.26754,0.6132 0.30678,0.90614 z m 4.200978,-9.84345 c -0.0184,0.30589 0.051,0.74756 -0.2579,0.93541 -0.10618,0.0644 -0.264547,0.0678 -0.303857,0.0457 -0.0475,-0.0271 -0.11615,-0.17228 -0.10986,-0.29923 0.0171,-0.34622 0.427067,-0.51457 0.671617,-0.68184 z m -7.080878,8.96252 c 0.30678,0.18385 0.68622,0.5415 1.07074,0.36686 0.13202,-0.0593 0.23941,-0.20905 0.24404,-0.26125 0.005,-0.0639 -0.0895,-0.22646 -0.21565,-0.3038 -0.34521,-0.21103 -0.77736,0.0731 -1.09913,0.19819 z m 0.24157,-2.49711 c 0.40122,0.03 0.96329,0.19922 1.26252,-0.16949 0.1032,-0.1265 0.13628,-0.33188 0.1145,-0.38674 -0.0272,-0.0674 -0.20435,-0.18276 -0.36979,-0.19699 -0.45437,-0.0396 -0.74649,0.46377 -1.00723,0.75322 z m 7.818918,-9.37644 c -0.10828,0.29529 -0.35524,0.68203 -0.14168,0.98609 0.0726,0.10446 0.22024,0.1733 0.26659,0.16847 0.0565,-0.006 0.18099,-0.11481 0.2269,-0.23623 0.12625,-0.3332 -0.19013,-0.65993 -0.35181,-0.91833 z m -4.956988,7.42217 c 0.26246,0.0196 0.629836,0.13025 0.825806,-0.11101 0.0673,-0.0828 0.0886,-0.21686 0.0744,-0.25306 -0.0175,-0.0437 -0.13329,-0.11945 -0.24195,-0.12872 -0.296746,-0.0259 -0.487696,0.30336 -0.658216,0.49279 z m 0.18347,-3.04757 c -0.26456,0.36458 -0.75564,0.79991 -0.58093,1.30178 0.0597,0.17222 0.23617,0.32393 0.30087,0.33593 0.0799,0.0135 0.29384,-0.0867 0.40497,-0.23662 0.304686,-0.4087 -0.003,-0.98266 -0.12491,-1.40109 z m 3.668098,1.96558 c 0.17883,-0.31657 0.33474,-0.82307 0.76186,-0.86219 0.14708,-0.0135 0.31759,0.0652 0.34724,0.10916 0.0369,0.0541 0.0343,0.24481 -0.0384,0.37639 -0.1989,0.36032 -0.72338,0.32584 -1.07068,0.37664 z m -6.469008,0.26786 c -0.092,0.38464 -0.344,0.90316 -0.0331,1.25167 0.10662,0.11971 0.30056,0.18321 0.35695,0.17089 0.0698,-0.0156 0.20938,-0.16937 0.24907,-0.32806 0.1091,-0.4343 -0.33391,-0.79634 -0.57294,-1.0945 z m 6.168071,-4.53775 c 0.348577,-0.18276 0.788207,-0.55248 1.200287,-0.33765 0.1413,0.0742 0.25078,0.24583 0.25198,0.30387 0.002,0.0707 -0.1124,0.2429 -0.25617,0.31993 -0.39246,0.2116 -0.85007,-0.12796 -1.196097,-0.28615 z m 1.306467,4.91967 c -0.37906,7e-4 -0.91865,-0.11653 -1.174,0.25116 -0.0869,0.12631 -0.102367,0.32107 -0.0786,0.37118 0.0301,0.061 0.20518,0.15628 0.36236,0.15749 0.4284,0.004 0.66616,-0.48987 0.8902,-0.77983 z m -6.797078,-3.58328 c -0.0698,0.33822 -0.27586,0.79767 0.005,1.09334 0.0965,0.10155 0.26741,0.15216 0.31631,0.13984 0.0602,-0.0156 0.17807,-0.15355 0.20899,-0.29307 0.0832,-0.38211 -0.31345,-0.68617 -0.53032,-0.94011 z m 3.225053,1.95173 c 0.16847,0.22563 0.478117,0.49399 0.373207,0.80898 -0.0368,0.10809 -0.14543,0.20403 -0.185937,0.21159 -0.0502,0.01 -0.18429,-0.052 -0.25453,-0.14485 -0.19305,-0.25325 -0.005,-0.6137 0.0672,-0.87572 z m -5.152973,1.86111 c 0.32183,0.07 0.80243,0.0685 0.95167,0.42726 0.0509,0.12332 0.0288,0.29218 -10e-4,0.32978 -0.0368,0.047 -0.20277,0.0959 -0.33607,0.0683 -0.36527,-0.0748 -0.47723,-0.53807 -0.61434,-0.8253 z m 5.40622,-4.87489 c -0.056,0.28361 -0.225627,0.66984 0.0113,0.91535 0.0819,0.0843 0.22532,0.12599 0.26627,0.11481 0.0506,-0.0132 0.1479,-0.12954 0.17255,-0.24658 0.0674,-0.32051 -0.26704,-0.57236 -0.45012,-0.78358 z m -3.79176,3.89515 c 0.33346,-0.21185 0.74224,-0.61865 1.17273,-0.43849 0.14746,0.0621 0.27078,0.22474 0.27707,0.28221 0.008,0.0712 -0.0919,0.25275 -0.22906,0.34216 -0.37486,0.24398 -0.86131,-0.0566 -1.22074,-0.18588 z m 4.1491,-1.35251 c 0.369457,0.14136 0.850504,0.45863 1.235841,0.1968 0.13285,-0.0906 0.22188,-0.27453 0.21642,-0.33199 -0.006,-0.0711 -0.14041,-0.22977 -0.292497,-0.28984 -0.41626,-0.16486 -0.832537,0.22684 -1.159764,0.42503 z m 4.452588,-5.55896 c -0.28679,0.18804 -0.754,0.36661 -0.76492,0.77107 -0.004,0.13933 0.0812,0.29491 0.12422,0.32063 0.0534,0.0314 0.23312,0.0172 0.35263,-0.0595 0.32725,-0.20932 0.26222,-0.70179 0.28807,-1.0322 z m -7.323728,7.96894 c 0.0966,0.0906 0.0435,0.21757 -0.0351,0.33734 -0.0932,0.14307 -0.19927,0.25338 -0.22308,0.38979 -0.0326,0.18517 0.0506,0.3452 0.19477,0.49107 0.63688,-0.16263 0.58753,-1.06515 0.0634,-1.2182 z m -2.31695,-0.9972 c 0.0456,-0.0851 0.14422,-0.0702 0.24322,-0.0373 0.11666,0.0393 0.21318,0.0937 0.31301,0.0855 0.13628,-0.0105 0.23326,-0.0978 0.30889,-0.22581 -0.22989,-0.41622 -0.85337,-0.21821 -0.86512,0.17762 z m 4.008316,-1.32648 c -0.0259,-0.16847 0.12828,-0.25344 0.302977,-0.31262 0.2069,-0.0699 0.4016,-0.0966 0.534127,-0.21554 0.17972,-0.16041 0.22315,-0.38788 0.19388,-0.64889 -0.770627,-0.34076 -1.43804,0.60704 -1.030984,1.17705 z m 0.14041,2.42815 c 0.0748,0.11805 0.216097,0.0879 0.356127,0.0302 0.16593,-0.068 0.300867,-0.15629 0.447127,-0.15425 0.19769,0.003 0.3473,0.11977 0.470187,0.29733 -0.294217,0.62678 -1.218261,0.39893 -1.273441,-0.17331 z m -4.425796,5.69124 c 0.0259,-0.1359 0.16677,-0.15882 0.31593,-0.15641 0.1768,0.003 0.33226,0.0351 0.466,-0.0192 0.18098,-0.0735 0.27586,-0.23522 0.32431,-0.443 -0.49526,-0.46885 -1.2617,0.0728 -1.10624,0.61859 z m 4.069726,-11.92944 c 0.11748,-0.076 0.2328,0.0111 0.33562,0.1225 0.121597,0.13139 0.206827,0.26849 0.340187,0.32819 0.18054,0.081 0.365717,0.0374 0.552097,-0.0719 -0.003,-0.69194 -0.936614,-0.8749 -1.227904,-0.3788 z m -3.765926,8.6043 c 0.13749,-0.0266 0.21236,0.0969 0.26583,0.23846 0.0639,0.1679 0.092,0.32673 0.19395,0.43208 0.1371,0.14206 0.32514,0.1705 0.5387,0.13869 0.25612,-0.64367 -0.54334,-1.16098 -0.99848,-0.80923 z m 8.063418,-10.28424 c -0.14504,0.035 -0.16257,0.18873 -0.1517,0.35016 0.0129,0.19096 0.0568,0.35709 0.006,0.50461 -0.0694,0.19921 -0.23948,0.31091 -0.46098,0.37511 -0.53458,-0.50942 0.009,-1.368 0.60722,-1.22988 z m -6.241228,16.27572 c 0.0731,-0.15329 -0.0385,-0.26499 -0.1759,-0.35523 -0.16264,-0.10777 -0.3273,-0.17299 -0.40999,-0.31098 -0.11074,-0.18715 -0.082,-0.40955 0.0208,-0.64933 0.78529,-0.16391 1.09544,0.86257 0.56505,1.31554 z m -0.1893,-4.06216 c -0.0526,-0.0941 0.0138,-0.16924 0.0977,-0.23249 0.0986,-0.0743 0.20067,-0.12212 0.24741,-0.21312 0.0631,-0.12288 0.0364,-0.26291 -0.0384,-0.4103 -0.50441,-0.0732 -0.66076,0.58963 -0.30673,0.85591 z m 1.58348,0.39537 c 0.10827,-0.11545 0.0351,-0.26176 -0.0672,-0.39829 -0.12123,-0.16175 -0.25586,-0.28514 -0.29504,-0.44517 -0.0523,-0.2168 0.0338,-0.41373 0.19349,-0.5984 0.768146,0.14454 0.779386,1.2203 0.1688,1.44186 z m 4.179238,-9.07149 c 0.10821,-0.11533 0.25821,-0.051 0.40116,0.0428 0.1693,0.11119 0.29967,0.23801 0.46269,0.26697 0.21941,0.04 0.4108,-0.058 0.58468,-0.22836 -0.19102,-0.75805 -1.26424,-0.70464 -1.44853,-0.0815 z m 8.13991,6.50523 c 1.39373,-0.39106 1.92646,-1.407 3.51679,-1.407 -1.24443,0.21293 -1.94208,1.00686 -2.90842,1.59059 0.37664,0.1352 0.75189,0.3193 1.43684,0.68546 0.66279,0.35391 1.60323,0.36318 1.90881,0.35683 -0.14263,0.12288 -1.23211,0.23618 -1.80727,0.006 -0.30456,-0.12161 -0.5688,-0.23738 -0.82561,-0.33981 0.19629,0.35035 0.54937,0.71226 0.61802,1.10256 0.028,0.1592 0.10224,0.36826 0.26837,0.45716 0.46631,0.25167 0.82955,0.6901 0.93389,1.01398 -0.45418,-0.51325 -1.22112,-0.75856 -1.34483,-0.93625 -0.19254,-0.27656 -0.21604,-0.5918 -0.40992,-0.95739 -0.0878,-0.16517 -0.28056,-0.41081 -0.47857,-0.6332 -0.32012,-0.35949 -0.46389,-0.33505 -0.95084,-0.46936 -0.54493,-0.15012 -1.24449,-0.32272 -1.80123,-0.31586 -0.71925,0.009 -1.02845,0.30971 -1.62761,0.41614 -0.28602,0.0506 -0.48607,0.28094 -0.67137,0.3767 -0.21654,0.11203 -0.28964,0.31295 -0.39004,0.59923 -0.088,0.25249 -0.24741,0.48479 -0.26094,0.96114 -0.0305,1.03734 0.055,1.85311 0.3087,2.85698 0.25903,1.02648 0.83469,1.12174 1.12726,1.35994 0.64596,0.52575 1.15901,0.66114 1.85012,0.74389 0.47267,0.0569 0.77469,0.0886 1.25834,0.0594 0.19769,-0.0117 0.76643,-0.0811 0.9492,-0.0435 0.31828,0.0655 0.48999,0.30628 0.98825,0.55242 -0.44898,0.0327 -0.76485,-0.21686 -0.93752,-0.23197 -0.51317,-0.0447 -0.74293,0.0213 -0.88962,0.0656 -0.0427,0.0125 -0.0773,0.0426 -0.11698,0.0589 0.308,0.15267 0.64152,0.40332 0.92513,0.47438 -0.43202,0 -1.04356,-0.28075 -1.50816,-0.4037 -0.17469,-0.007 -0.36908,-0.0242 -0.5911,-0.0271 -0.13621,-0.001 -0.47405,0.0815 -0.63554,0.053 -0.38243,-0.0672 -1.22195,-0.17051 -1.5972,-0.25897 0.0142,0.22144 0.66019,0.74553 0.96444,0.89141 0.0791,0.0104 0.18804,0.0702 0.24017,0.0723 0.29358,0.0125 0.91402,-0.19476 1.21757,-0.18727 0.79576,0.02 1.12123,0.43634 1.65263,0.49813 -0.3682,0.10796 -0.81927,-0.23656 -1.42275,-0.25948 -0.31587,-0.0122 -0.48555,0.13914 -0.71715,0.15755 0.17121,0.0969 0.33384,0.21312 0.43456,0.34508 0.0799,0.10536 0.0961,0.47571 0.0346,0.70134 -0.0508,-0.51647 -0.52397,-0.75804 -0.64888,-0.77233 -0.26888,-0.0309 -0.89941,-0.0451 -1.1079,-0.10491 -0.50911,-0.14549 -0.99638,-0.84747 -1.49666,-0.83038 0.0271,0.15463 0.13006,0.36349 0.3795,0.4672 0.29307,0.12212 0.37322,0.8982 0.86632,1.12809 0.48194,0.22436 0.33765,0.59973 0.30761,0.85756 -0.12281,-0.39989 -0.24277,-0.50448 -0.63605,-0.65822 -0.3783,-0.14892 -0.46136,-0.67207 -0.80174,-0.83337 -0.17832,-0.0848 -0.50632,-0.14631 -0.64552,-0.265 -0.0489,-0.0413 -0.0962,-0.0777 -0.14168,-0.1086 -0.023,0.49896 0.41126,0.64267 0.61593,0.98197 0.0259,0.0427 0.10211,0.11996 0.1385,0.17978 0.083,0.13704 -0.0215,0.34775 0.0892,0.46726 0.0913,0.0979 0.39424,0.4472 0.49032,0.47063 -0.21306,-0.0526 -0.58005,-0.25249 -0.74395,-0.38692 -0.12746,-0.10453 -0.0218,-0.23916 -0.0998,-0.36738 -0.0786,-0.13005 -0.35277,-0.22112 -0.50975,-0.34324 -0.0625,0.20487 -0.174,0.52867 -0.15221,0.65955 0.0439,0.26583 -0.0242,0.43132 0.0856,0.62432 -0.2838,-0.12962 -0.33733,-0.64527 -0.34814,-0.79241 -0.005,-0.0668 0.0168,-0.50315 0.0108,-0.56493 -0.0338,-0.3482 -0.0905,-0.43132 -0.18422,-0.57179 -0.0932,0.14047 -0.15007,0.22359 -0.18391,0.57179 -0.006,0.0618 0.0154,0.49812 0.0109,0.56493 -0.0104,0.14714 -0.0644,0.66279 -0.34807,0.79241 0.10986,-0.193 0.0418,-0.35849 0.086,-0.62432 0.0213,-0.13088 -0.0902,-0.45468 -0.15247,-0.65955 -0.15724,0.12212 -0.43132,0.21319 -0.50988,0.34324 -0.0782,0.12822 0.0275,0.26285 -0.0999,0.36738 -0.16384,0.13443 -0.53077,0.33428 -0.74388,0.38692 0.0961,-0.0234 0.39905,-0.37276 0.49018,-0.47063 0.11075,-0.11951 0.006,-0.33022 0.0894,-0.46726 0.0364,-0.0598 0.11246,-0.13704 0.13837,-0.17978 0.2048,-0.3393 0.63905,-0.48301 0.61599,-0.98197 -0.0455,0.0309 -0.0928,0.0673 -0.14161,0.1086 -0.13914,0.11869 -0.46733,0.18016 -0.64571,0.265 -0.3402,0.1613 -0.42338,0.68445 -0.80161,0.83337 -0.39329,0.15374 -0.51324,0.25833 -0.63606,0.65822 -0.0301,-0.25783 -0.174317,-0.6332 0.30761,-0.85756 0.49312,-0.22989 0.57332,-1.00597 0.86633,-1.12809 0.2495,-0.10371 0.35225,-0.31257 0.37943,-0.4672 -0.50022,-0.0171 -0.98755,0.68489 -1.49653,0.83038 -0.208547,0.0598 -0.839214,0.074 -1.107964,0.10491 -0.124897,0.0143 -0.598004,0.25586 -0.649004,0.77233 -0.0614,-0.22563 -0.045,-0.59598 0.0346,-0.70134 0.100707,-0.13196 0.263277,-0.24823 0.435057,-0.34508 -0.23198,-0.0184 -0.4016,-0.16974 -0.717527,-0.15755 -0.603477,0.0229 -1.054484,0.36744 -1.42261,0.25948 0.531146,-0.0618 0.856723,-0.47812 1.65243,-0.49813 0.303417,-0.008 0.924044,0.19979 1.217371,0.18727 0.0523,-0.002 0.16136,-0.0619 0.24035,-0.0723 0.304247,-0.14588 0.950347,-0.66997 0.964567,-0.89141 -0.37531,0.0885 -1.214957,0.19172 -1.597314,0.25897 -0.1613,0.0285 -0.499397,-0.0546 -0.635677,-0.053 -0.221877,0.003 -0.416197,0.0197 -0.590897,0.0271 -0.464787,0.12295 -1.076194,0.4037 -1.50834,0.4037 0.2838,-0.0711 0.617326,-0.32171 0.925316,-0.47438 -0.0397,-0.0163 -0.074,-0.0464 -0.11698,-0.0589 -0.14675,-0.0444 -0.37658,-0.11038 -0.889746,-0.0656 -0.17267,0.0151 -0.48854,0.26467 -0.93745,0.23197 0.49819,-0.24614 0.66997,-0.48688 0.98838,-0.55242 0.18264,-0.0378 0.751436,0.0317 0.949126,0.0435 0.483517,0.0292 0.785674,-0.003 1.258331,-0.0594 0.691297,-0.0827 1.204094,-0.21814 1.850181,-0.74389 0.2925,-0.2382 0.86804,-0.33346 1.12707,-1.35994 0.2537,-1.00387 0.33936,-1.81964 0.30926,-2.85698 -0.0142,-0.47635 -0.17336,-0.70865 -0.26157,-0.96114 -0.0999,-0.28628 -0.17299,-0.4872 -0.38992,-0.59923 -0.18518,-0.0958 -0.38534,-0.32609 -0.67124,-0.3767 -0.599277,-0.10643 -0.908547,-0.40726 -1.627791,-0.41614 -0.556667,-0.007 -1.256224,0.16574 -1.801221,0.31586 -0.486886,0.13431 -0.630656,0.10987 -0.950776,0.46936 -0.19807,0.22239 -0.39074,0.46803 -0.47851,0.6332 -0.19393,0.36559 -0.21731,0.68083 -0.40998,0.95739 -0.1237,0.17769 -0.89058,0.423 -1.34489,0.93625 0.10453,-0.32388 0.46765,-0.76231 0.93408,-1.01398 0.16632,-0.0889 0.24031,-0.29796 0.26831,-0.45716 0.0685,-0.3903 0.42167,-0.75221 0.61809,-1.10256 -0.257,0.10243 -0.52112,0.2182 -0.82581,0.33981 -0.57509,0.23033 -1.66457,0.11703 -1.80714,-0.006 0.30552,0.006 1.24589,-0.003 1.90874,-0.35683 0.68496,-0.36616 1.06021,-0.55026 1.43679,-0.68546 -0.96622,-0.58373 -1.66375,-1.37766 -2.90837,-1.59059 1.59027,0 2.12314,1.01594 3.516856,1.407 0.657777,-0.1378 1.247914,-0.44993 1.911148,-0.46225 0.0476,-0.001 0.690857,0.11857 0.539527,-0.29237 -0.312567,-0.8486 -1.178951,-1.76948 -1.759058,-1.79234 -0.612997,-0.0241 -0.890127,-0.12421 -1.468523,-0.43373 -0.73264,-0.39189 -0.73684,-0.99156 -1.62862,-1.6976 1.39124,0.56005 0.75138,1.26025 2.468206,1.63568 0.237817,0.0521 1.022214,-0.0278 1.536281,0.17927 0.509427,0.20505 1.742361,1.77622 2.156911,2.21712 0.32012,0.34115 1.08872,0.44015 1.20531,0.30476 0.28284,-0.32877 0.35766,-2.45647 0.14663,-2.86156 -0.43088,-0.826 -0.86131,-0.95282 -1.88188,-1.34502 -0.552107,-0.21242 -0.782807,-0.83387 -0.910644,-0.93789 -0.40458,-0.32978 -0.845047,-0.27796 -1.314344,-0.37264 -0.880154,-0.17705 -1.044444,-0.61891 -1.66043,-0.61891 0.809106,-0.10771 1.411753,0.46516 2.367107,0.46516 0.12542,0 0.319297,0.0489 0.379057,0.0156 0.13247,-0.0729 0.0109,-0.28138 -0.13749,-0.42979 -0.554577,-0.55471 -0.357717,-0.8895 -0.665774,-1.53668 0.437607,0.5408 0.325967,0.64565 0.668244,1.14581 0.29505,0.4303 0.437617,0.20162 0.487327,0.61802 0.0631,0.52346 0.506887,1.19109 0.955357,1.30247 0.78491,0.19489 0.9725,0.27402 1.4439,0.47546 0.30062,0.12815 0.5526,0.21413 0.5526,-0.16302 0,-0.29669 0.13947,-0.78206 0.053,-1.12999 -0.0743,-0.29891 -0.43373,-0.68597 -0.60767,-0.98933 -0.27123,-0.47375 -0.30336,-0.66571 -0.49266,-1.0362 -0.20023,-0.39119 -1.16353,-0.44847 -1.138,-1.38566 0.099,0.31536 0.25072,0.4912 0.40789,0.59726 0.0627,0.0424 0.35645,0.17483 0.593,0.26716 0.2817,0.10979 0.33098,0.14275 0.48104,-0.1347 0.1112,-0.20626 0.17216,-0.42928 0.39989,-0.54409 0.11627,-0.0583 0.21864,-0.081 0.30063,-0.0558 -0.32514,0.12923 -0.39297,0.42916 -0.49489,0.66127 -0.0844,0.19235 -0.15006,0.47526 -0.11037,0.69099 0.0393,0.21376 0.16384,0.44847 0.28304,0.63002 0.0751,0.11373 0.17717,0.20569 0.28659,0.28793 0.19312,0.14479 0.26876,0.25376 0.43883,0.32133 0.17019,-0.0676 0.2462,-0.17654 0.43919,-0.32133 0.10967,-0.0822 0.2121,-0.1742 0.28672,-0.28793 0.11907,-0.18155 0.24367,-0.41626 0.28298,-0.63002 0.0396,-0.21573 -0.0259,-0.49864 -0.11038,-0.69099 -0.10192,-0.23211 -0.16949,-0.53204 -0.4945,-0.66127 0.0815,-0.0252 0.18416,-0.003 0.30031,0.0558 0.22766,0.11481 0.28875,0.33783 0.39976,0.54409 0.15012,0.27745 0.1994,0.24449 0.48111,0.1347 0.23661,-0.0923 0.53031,-0.22475 0.593,-0.26716 0.1573,-0.10606 0.309,-0.2819 0.40801,-0.59726 0.0255,0.93719 -0.93789,0.99447 -1.13812,1.38566 -0.18943,0.37049 -0.22131,0.56245 -0.49273,1.0362 -0.17381,0.30336 -0.53312,0.69042 -0.6076,0.98933 -0.0864,0.34793 0.053,0.8333 0.053,1.12999 0,0.37715 0.25205,0.29117 0.55249,0.16302 0.47152,-0.20144 0.65904,-0.28057 1.44402,-0.47546 0.44852,-0.11138 0.89217,-0.77901 0.95535,-1.30247 0.0496,-0.4164 0.19217,-0.18772 0.48727,-0.61802 0.34229,-0.50016 0.23058,-0.60501 0.66813,-1.14581 -0.30781,0.64718 -0.111,0.98197 -0.66571,1.53668 -0.14829,0.14841 -0.2699,0.35689 -0.13742,0.42979 0.0597,0.0333 0.25407,-0.0156 0.37899,-0.0156 0.95535,0 1.55813,-0.57287 2.36724,-0.46516 -0.61593,0 -0.78015,0.44186 -1.66032,0.61891 -0.46948,0.0947 -0.90988,0.0428 -1.31447,0.37264 -0.12752,0.10402 -0.35861,0.72547 -0.91077,0.93789 -1.02052,0.3922 -1.45101,0.51902 -1.88188,1.34502 -0.21103,0.40509 -0.13622,2.53279 0.14675,2.86156 0.11666,0.13539 0.88512,0.0364 1.20531,-0.30476 0.41468,-0.4409 1.64736,-2.01207 2.15691,-2.21712 0.51407,-0.20709 1.29854,-0.12714 1.5363,-0.17927 1.71664,-0.37543 1.07703,-1.07563 2.46872,-1.63568 -0.89223,0.70604 -0.89655,1.30571 -1.62913,1.6976 -0.5784,0.30952 -0.85553,0.40972 -1.4686,0.43373 -0.58011,0.0229 -1.44637,0.94374 -1.759,1.79234 -0.15133,0.41094 0.4919,0.29116 0.5396,0.29237 0.66317,0.0123 1.25325,0.32445 1.91109,0.46225 z m 2.53711,3.13913 c -0.28208,0.12161 -0.36908,0.2871 -0.38369,0.46772 -0.0317,0.37194 0.28641,0.66101 0.24335,0.99542 0.81996,-0.66622 0.56963,-1.25109 0.14034,-1.46314 z m -6.44433,-8.05352 c 0.29168,-0.0818 0.39912,-0.23199 0.43805,-0.4063 0.0798,-0.36033 -0.19267,-0.6856 -0.10586,-1.00648 -0.89084,0.5422 -0.72426,1.14841 -0.33219,1.41278 z m 4.99377,4.3245 c -0.31377,0 -0.46256,-0.12028 -0.55007,-0.28361 -0.18029,-0.33682 10e-4,-0.73678 -0.17451,-1.03359 1.03963,0.29339 1.04166,0.94418 0.72458,1.3172 z m -5.27122,-4.23992 c -0.15304,0.10282 -0.26424,0.0935 -0.35994,0.0429 -0.198,-0.10466 -0.24106,-0.35779 -0.42332,-0.44358 0.60018,-0.19884 0.81451,0.11602 0.78326,0.40064 z m 6.43595,0.65835 c 0.15146,-0.29873 0.33696,-0.38223 0.53407,-0.38655 0.40751,-0.01 0.70058,0.35569 1.06687,0.33131 -0.77875,0.84726 -1.39957,0.53634 -1.60094,0.0552 z m -1.51952,-2.2154 c 0.15748,0.33923 0.36184,0.43938 0.58163,0.45227 0.4545,0.0255 0.79634,-0.37093 1.20417,-0.32876 -0.8375,-0.97675 -1.54182,-0.65263 -1.7858,-0.12351 z m 0.91192,6.90683 c 0.0476,-0.2556 0.16765,-0.35854 0.31415,-0.40471 0.30151,-0.0964 0.60056,0.11158 0.86855,0.0131 -0.39614,0.80327 -0.92704,0.70686 -1.1827,0.39163 z m -1.66807,-6.66082 c 0.19115,-0.10961 0.32413,-0.0887 0.43392,-0.0199 0.22735,0.14245 0.25739,0.44955 0.46809,0.56843 -0.73595,0.18518 -0.9645,-0.21032 -0.90201,-0.54855 z m 2.72192,1.31263 c 0.10758,0.12161 0.20537,0.13876 0.29904,0.11685 0.19184,-0.0453 0.28602,-0.25262 0.46123,-0.2852 -0.4693,-0.30438 -0.72338,-0.0827 -0.76027,0.16835 z m -4.52435,-0.70076 c 0.16421,-0.0942 0.27878,-0.0767 0.37371,-0.0171 0.1956,0.12231 0.221,0.38674 0.40199,0.48885 -0.63276,0.1594 -0.83013,-0.18086 -0.7757,-0.4717 z m -3.25402,-0.5871 c 0.14727,-0.0846 0.25002,-0.0688 0.3348,-0.0153 0.17514,0.10948 0.19863,0.34661 0.36083,0.43824 -0.56761,0.14288 -0.74402,-0.16232 -0.69563,-0.42293 z m 8.73442,3.76935 c 0.21052,0.0385 0.32546,-0.024 0.40351,-0.12282 0.1618,-0.20436 0.0894,-0.49552 0.24283,-0.67276 -0.73334,0.0704 -0.81399,0.50753 -0.64634,0.79558 z m -1.33041,1.05658 c -0.16835,-0.0823 -0.21693,-0.18644 -0.22036,-0.29612 -0.008,-0.22785 0.19458,-0.395 0.17813,-0.59986 0.4799,0.43049 0.30971,0.78002 0.0422,0.89598 z m -2.11716,-1.97656 c -0.18512,0.015 -0.2793,-0.0491 -0.33766,-0.14137 -0.12211,-0.19095 -0.0329,-0.43544 -0.15044,-0.6024 0.62679,0.12555 0.65816,0.50975 0.4881,0.74377 z m 3.56746,4.21844 c 0.0476,-0.25617 0.16746,-0.35892 0.31384,-0.40496 0.30165,-0.0966 0.60088,0.11126 0.86868,0.0134 -0.39595,0.80326 -0.92685,0.70642 -1.18252,0.39163 z m -0.58315,4.54747 c 0.16524,0.1312 0.19318,0.2565 0.17051,0.37912 -0.0455,0.25275 -0.30883,0.38694 -0.33969,0.61644 -0.42414,-0.5885 -0.15342,-0.93199 0.16918,-0.99556 z m -0.52575,-4.028 c 0.1639,-0.0769 0.27161,-0.0506 0.3574,0.0134 0.17711,0.13215 0.18054,0.38623 0.34508,0.49826 -0.61599,0.10192 -0.77729,-0.23834 -0.70248,-0.51159 z m -6.01054,-2.99657 c -0.076,0.19902 -0.18842,0.26405 -0.31263,0.27955 -0.25617,0.0326 -0.46587,-0.17895 -0.69524,-0.13921 0.43665,-0.58697 0.84879,-0.431 1.00787,-0.14034 z m 6.66666,0.35226 c -0.0274,0.31403 0.0795,0.47323 0.23541,0.57497 0.32089,0.21 0.73811,0.0638 1.01848,0.26614 -0.20106,-1.06674 -0.85254,-1.12644 -1.25389,-0.84111 z m -5.02641,-0.52436 c -0.20087,0.17382 -0.22938,0.33289 -0.19509,0.48473 0.0708,0.31486 0.40801,0.47114 0.4585,0.75786 0.50372,-0.76179 0.14549,-1.17889 -0.26341,-1.24259 z m 3.60093,4.43037 c 0.1843,0.1117 0.22907,0.23459 0.2224,0.36153 -0.0139,0.2624 -0.26171,0.43291 -0.26374,0.66914 -0.5067,-0.54035 -0.27707,-0.92404 0.0413,-1.03067 z m -6.44516,-12.13869 c -0.1726,-0.0419 -0.23814,-0.12764 -0.26424,-0.22938 -0.0533,-0.20867 0.0995,-0.40407 0.043,-0.59007 0.5309,0.30006 0.44472,0.65783 0.22119,0.81945 z m 2.10047,2.8293 c -0.16423,0.0673 -0.26786,0.0366 -0.34852,-0.0302 -0.16587,-0.13743 -0.15767,-0.38553 -0.31256,-0.50219 0.60583,-0.0701 0.74687,0.2697 0.66108,0.53235 z m 3.10281,-0.29904 c -0.1836,-0.11907 -0.22544,-0.24551 -0.21446,-0.37404 0.0226,-0.26493 0.27987,-0.43068 0.28946,-0.66984 0.49654,0.56468 0.25115,0.94609 -0.075,1.04388 z m -2.73411,-0.18257 c -0.28634,-0.0815 -0.3903,-0.22957 -0.42808,-0.40116 -0.0765,-0.35391 0.19236,-0.67206 0.10879,-0.98724 0.87216,0.53636 0.70534,1.1307 0.31929,1.3884 z m 4.18346,11.28011 c 0.0868,0.1538 0.0697,0.25948 0.014,0.34775 -0.11494,0.18175 -0.36153,0.20467 -0.45704,0.37277 -0.14586,-0.59015 0.1721,-0.77234 0.44301,-0.72052 z m -4.11995,-3.8406 c 0.0868,0.15367 0.0697,0.25985 0.0137,0.34794 -0.11443,0.18193 -0.36115,0.20435 -0.45691,0.37245 -0.14587,-0.59008 0.17228,-0.7719 0.44319,-0.72039 z m 2.91667,-3.3621 c -0.0223,0.25224 0.0634,0.38007 0.18887,0.46205 0.25827,0.16867 0.593,0.051 0.81882,0.21344 -0.16181,-0.85667 -0.68546,-0.90456 -1.00769,-0.67549 z m 1.04592,9.52632 c -0.16009,0.004 -0.2349,0.0657 -0.27745,0.14922 -0.089,0.1735 0.007,0.37576 -0.0798,0.52792 0.52691,-0.158 0.52195,-0.48987 0.35722,-0.67714 z m -1.33301,-5.56754 c -0.0715,0.17298 -0.17153,0.22823 -0.28083,0.23896 -0.22701,0.0231 -0.40718,-0.1679 -0.61013,-0.1378 0.39721,-0.5074 0.75664,-0.36108 0.89096,-0.10116 z m -2.05239,-8.98463 c -0.28463,-0.0987 -0.38179,-0.25376 -0.40973,-0.42897 -0.0577,-0.36133 0.23147,-0.6673 0.16524,-0.99073 0.84999,0.59059 0.64805,1.18099 0.24449,1.4197 z m 2.97415,3.5911 c -0.2711,-0.10174 -0.36134,-0.25288 -0.38351,-0.42205 -0.0474,-0.34883 0.23764,-0.63625 0.18118,-0.94869 0.80384,0.58786 0.59612,1.15076 0.20233,1.37074 z m -4.93599,0.15907 c 0.0509,0.28431 0.18429,0.40015 0.34641,0.4526 0.33524,0.10846 0.66864,-0.1213 0.96585,-0.01 -0.43495,-0.89534 -1.02592,-0.791 -1.31226,-0.44268 z m 3.51013,2.7324 c -0.007,0.40046 0.10948,0.9732 -0.28291,1.23636 -0.13539,0.0904 -0.34146,0.10434 -0.39411,0.0774 -0.064,-0.0328 -0.16213,-0.21896 -0.1613,-0.38452 0.003,-0.45348 0.52829,-0.69676 0.83832,-0.92925 z m 2.23039,8.78382 c 0.20074,-0.23445 0.55985,-0.50612 0.46701,-0.85794 -0.0319,-0.12122 -0.14396,-0.23439 -0.18785,-0.24575 -0.0537,-0.0142 -0.20524,0.0434 -0.28944,0.13964 -0.22958,0.26316 -0.0503,0.67187 0.0103,0.96405 z m -3.21623,-5.9758 c -0.1237,-0.32431 -0.19851,-0.82491 -0.59573,-0.92322 -0.13692,-0.0338 -0.30952,0.0158 -0.34388,0.053 -0.043,0.0458 -0.0678,0.22608 -0.018,0.36102 0.13622,0.3687 0.63619,0.41131 0.95758,0.50918 z m 1.107,-9.11837 c -0.30132,0.26444 -0.8124,0.54633 -0.75925,1.01613 0.0184,0.16143 0.14205,0.32769 0.19559,0.35036 0.0667,0.0276 0.27199,-0.0181 0.39824,-0.12631 0.34349,-0.29492 0.18892,-0.85363 0.16542,-1.24018 z m -1.3941,3.56836 c -0.007,0.38897 0.10643,0.94488 -0.27504,1.20068 -0.13126,0.0877 -0.3313,0.1011 -0.38242,0.0752 -0.0623,-0.0317 -0.15749,-0.2123 -0.15666,-0.37341 0.002,-0.44059 0.51317,-0.67682 0.81412,-0.90246 z m 5.91401,6.68673 c -0.15685,-0.37702 -0.2617,-0.96214 -0.73144,-1.06375 -0.16212,-0.0354 -0.36324,0.0285 -0.40236,0.0732 -0.0482,0.0557 -0.0711,0.26875 -0.009,0.42547 0.17241,0.42808 0.7618,0.46136 1.14257,0.56512 z m -6.77906,-11.97103 c -0.32686,0.0325 -0.80251,-0.0242 -0.99105,0.31415 -0.0657,0.11634 -0.0635,0.28603 -0.0381,0.32705 0.0313,0.0501 0.19025,0.11787 0.32564,0.10656 0.37042,-0.0325 0.53465,-0.47837 0.70351,-0.74776 z m -2.54144,6.92627 c 0.12523,-0.25599 0.38401,-0.58043 0.2203,-0.87369 -0.0565,-0.10135 -0.18219,-0.17667 -0.22411,-0.17604 -0.0515,-1.3e-4 -0.17343,0.086 -0.22665,0.19083 -0.14447,0.28774 0.1093,0.61187 0.23046,0.8589 z m 8.24176,8.11811 c -0.32597,-0.20562 -0.85134,-0.39696 -0.87128,-0.84924 -0.006,-0.15622 0.0853,-0.33181 0.1345,-0.36026 0.0575,-0.0368 0.2591,-0.0234 0.395,0.0593 0.36857,0.2283 0.30596,0.78084 0.34178,1.15018 z m -1.56633,-5.56004 c -0.18975,0.0606 -0.44097,0.20486 -0.6266,0.0614 -0.0639,-0.0497 -0.10262,-0.14428 -0.0982,-0.17311 0.005,-0.0355 0.0774,-0.11081 0.15565,-0.13691 0.21344,-0.0698 0.41113,0.13983 0.56913,0.24861 z m 1.88943,4.61891 c -0.0557,-0.31765 -0.0361,-0.78726 -0.38159,-0.94614 -0.11907,-0.0553 -0.28412,-0.0402 -0.3226,-0.0122 -0.0468,0.0346 -0.10154,0.19432 -0.0794,0.32596 0.0594,0.36026 0.50772,0.48689 0.78364,0.63238 z m -4.31847,-12.19444 c -0.26576,-0.07 -0.62183,-0.25173 -0.86803,-0.0413 -0.0847,0.0726 -0.13209,0.20588 -0.12403,0.24538 0.0101,0.0489 0.11444,0.14803 0.22405,0.17788 0.29961,0.082 0.55731,-0.21992 0.76801,-0.38192 z m -2.17133,-0.68496 c -0.26576,-0.07 -0.62234,-0.25166 -0.86867,-0.0413 -0.0846,0.0726 -0.13197,0.20588 -0.12408,0.24538 0.0101,0.0489 0.11443,0.14803 0.2241,0.17775 0.29954,0.0822 0.55744,-0.21979 0.76865,-0.38179 z m 3.40668,11.55464 c 0.26545,-0.15349 0.69048,-0.29002 0.71982,-0.65041 0.01,-0.1244 -0.0585,-0.26646 -0.0963,-0.29122 -0.0455,-0.0313 -0.20646,-0.0268 -0.31676,0.0355 -0.30114,0.17134 -0.26729,0.6132 -0.30679,0.90614 z m -4.20092,-9.84345 c 0.0183,0.30589 -0.0508,0.74756 0.25789,0.93541 0.10624,0.0644 0.26455,0.0678 0.30386,0.0457 0.0475,-0.0271 0.11615,-0.17228 0.10981,-0.29923 -0.0169,-0.34622 -0.42707,-0.51457 -0.67156,-0.68184 z m 7.08089,8.96252 c -0.30678,0.18385 -0.68615,0.5415 -1.07067,0.36686 -0.1321,-0.0593 -0.23954,-0.20905 -0.24412,-0.26125 -0.005,-0.0639 0.0894,-0.22646 0.21566,-0.3038 0.34522,-0.21103 0.77724,0.0731 1.09913,0.19819 z m -0.24106,-2.49711 c -0.40166,0.03 -0.9638,0.19922 -1.26303,-0.16949 -0.10326,-0.1265 -0.13622,-0.33188 -0.11456,-0.38674 0.0273,-0.0674 0.20429,-0.18276 0.37004,-0.19699 0.45418,-0.0396 0.74643,0.46377 1.00755,0.75322 z m -7.81939,-9.37644 c 0.10828,0.29529 0.35519,0.68203 0.14174,0.98609 -0.0728,0.10446 -0.22029,0.1733 -0.26665,0.16847 -0.0565,-0.006 -0.18098,-0.11481 -0.22696,-0.23623 -0.12631,-0.3332 0.19026,-0.65993 0.35187,-0.91833 z m 4.95708,7.42217 c -0.26266,0.0196 -0.62984,0.13025 -0.82594,-0.11101 -0.0672,-0.0828 -0.0885,-0.21686 -0.0745,-0.25306 0.0182,-0.0437 0.13329,-0.11945 0.24207,-0.12872 0.2967,-0.0259 0.48784,0.30336 0.65836,0.49279 z m -0.1836,-3.04757 c 0.26462,0.36458 0.75564,0.79991 0.58081,1.30178 -0.0595,0.17222 -0.23592,0.32393 -0.30075,0.33593 -0.0799,0.0135 -0.2939,-0.0867 -0.40509,-0.23662 -0.30458,-0.4087 0.003,-0.98266 0.12503,-1.40109 z m -3.66781,1.96558 c -0.17914,-0.31657 -0.33492,-0.82307 -0.76198,-0.86219 -0.1472,-0.0135 -0.31777,0.0652 -0.34743,0.10916 -0.0367,0.0541 -0.0343,0.24481 0.0384,0.37639 0.19889,0.36032 0.72338,0.32584 1.071,0.37664 z m 6.46866,0.26786 c 0.092,0.38464 0.34407,0.90316 0.0331,1.25167 -0.10657,0.11971 -0.30044,0.18321 -0.3569,0.17089 -0.0698,-0.0156 -0.2093,-0.16937 -0.24913,-0.32806 -0.10897,-0.4343 0.3341,-0.79634 0.57288,-1.0945 z m -6.16803,-4.53775 c -0.34851,-0.18276 -0.78827,-0.55248 -1.20023,-0.33765 -0.14117,0.0742 -0.25033,0.24583 -0.25205,0.30387 -0.002,0.0707 0.11241,0.2429 0.25618,0.31993 0.3924,0.2116 0.85001,-0.12796 1.1961,-0.28615 z m -1.30641,4.91967 c 0.37919,7e-4 0.91866,-0.11653 1.17395,0.25116 0.087,0.12631 0.10243,0.32107 0.0785,0.37118 -0.0302,0.061 -0.20518,0.15628 -0.36236,0.15749 -0.42846,0.004 -0.66609,-0.48987 -0.89014,-0.77983 z m 6.7971,-3.58328 c 0.0698,0.33822 0.27587,0.79767 -0.005,1.09334 -0.0966,0.10155 -0.26748,0.15216 -0.31638,0.13984 -0.0602,-0.0156 -0.17812,-0.15355 -0.20899,-0.29307 -0.0832,-0.38211 0.31345,-0.68617 0.53039,-0.94011 z m -3.22499,1.95173 c -0.16853,0.22563 -0.47818,0.49399 -0.37289,0.80898 0.0363,0.10809 0.14504,0.20403 0.1855,0.21159 0.0501,0.01 0.18447,-0.052 0.25496,-0.14485 0.19268,-0.25325 0.005,-0.6137 -0.0676,-0.87572 z m 5.15299,1.86111 c -0.32203,0.07 -0.80245,0.0685 -0.95175,0.42726 -0.0509,0.12332 -0.0288,0.29218 0.001,0.32978 0.0369,0.047 0.20283,0.0959 0.33613,0.0683 0.36508,-0.0748 0.47717,-0.53807 0.6144,-0.8253 z m -5.40643,-4.87489 c 0.0559,0.28361 0.22582,0.66984 -0.0113,0.91535 -0.0817,0.0843 -0.22512,0.12599 -0.26615,0.11481 -0.0506,-0.0132 -0.1479,-0.12954 -0.1726,-0.24658 -0.0671,-0.32051 0.26716,-0.57236 0.45005,-0.78358 z m 3.79189,3.89515 c -0.33339,-0.21185 -0.74224,-0.61865 -1.1726,-0.43849 -0.14771,0.0621 -0.2709,0.22474 -0.27726,0.28221 -0.008,0.0712 0.092,0.25275 0.22906,0.34216 0.37493,0.24398 0.86131,-0.0566 1.2208,-0.18588 z m -4.1491,-1.35251 c -0.3696,0.14136 -0.85038,0.45863 -1.23592,0.1968 -0.13279,-0.0906 -0.22182,-0.27453 -0.21636,-0.33199 0.006,-0.0711 0.14034,-0.22977 0.29238,-0.28984 0.41626,-0.16486 0.83266,0.22684 1.1599,0.42503 z m -4.46396,-5.55896 c 0.28672,0.18804 0.75443,0.36661 0.76491,0.77107 0.004,0.13933 -0.0807,0.29491 -0.12371,0.32063 -0.0535,0.0314 -0.23318,0.0172 -0.35277,-0.0595 -0.32724,-0.20932 -0.26201,-0.70179 -0.28843,-1.0322 z m 7.33511,7.96894 c -0.0966,0.0906 -0.0435,0.21757 0.0351,0.33734 0.0932,0.14307 0.19934,0.25338 0.22303,0.38979 0.0328,0.18517 -0.0504,0.3452 -0.19477,0.49107 -0.63669,-0.16263 -0.58748,-1.06515 -0.0633,-1.2182 z m 2.31688,-0.9972 c -0.0455,-0.0851 -0.14415,-0.0702 -0.24316,-0.0373 -0.11665,0.0393 -0.21312,0.0937 -0.31314,0.0855 -0.13621,-0.0105 -0.23318,-0.0978 -0.30882,-0.22581 0.22989,-0.41622 0.85344,-0.21821 0.86512,0.17762 z m -4.00863,-1.32648 c 0.0263,-0.16847 -0.12796,-0.25344 -0.30266,-0.31262 -0.20678,-0.0699 -0.40166,-0.0966 -0.53414,-0.21554 -0.17978,-0.16041 -0.22322,-0.38788 -0.19387,-0.64889 0.77055,-0.34076 1.43798,0.60704 1.03067,1.17705 z m -0.14016,2.42815 c -0.0748,0.11805 -0.21604,0.0879 -0.35606,0.0302 -0.16588,-0.068 -0.30095,-0.15629 -0.44714,-0.15425 -0.19781,0.003 -0.34724,0.11977 -0.47025,0.29733 0.29422,0.62678 1.21839,0.39893 1.27345,-0.17331 z m 4.42586,5.69124 c -0.0259,-0.1359 -0.16657,-0.15882 -0.31587,-0.15641 -0.17692,0.003 -0.33238,0.0351 -0.46619,-0.0192 -0.18034,-0.0735 -0.27554,-0.23522 -0.32425,-0.443 0.49533,-0.46885 1.26196,0.0728 1.10631,0.61859 z m -4.06967,-11.92944 c -0.11754,-0.076 -0.23286,0.0111 -0.33561,0.1225 -0.12168,0.13139 -0.2069,0.26849 -0.34026,0.32819 -0.18048,0.081 -0.36559,0.0374 -0.55198,-0.0719 0.003,-0.69194 0.93688,-0.8749 1.22785,-0.3788 z m 3.76581,8.6043 c -0.13743,-0.0266 -0.21224,0.0969 -0.26577,0.23846 -0.0639,0.1679 -0.0918,0.32673 -0.19388,0.43208 -0.13711,0.14206 -0.32514,0.1705 -0.53877,0.13869 -0.25617,-0.64367 0.5434,-1.16098 0.99842,-0.80923 z m -8.06332,-10.28421 c 0.14499,0.035 0.16264,0.18873 0.15165,0.35016 -0.013,0.19096 -0.057,0.35708 -0.005,0.5046 0.0687,0.19922 0.23896,0.31092 0.46047,0.37512 0.53451,-0.50942 -0.009,-1.368 -0.60716,-1.22988 z m 6.24113,16.27572 c -0.0731,-0.15329 0.0385,-0.26499 0.1761,-0.35523 0.16244,-0.10777 0.32716,-0.17299 0.40985,-0.31099 0.11087,-0.18714 0.0821,-0.40954 -0.0207,-0.64933 -0.78529,-0.1639 -1.09531,0.86258 -0.56518,1.31555 z m 0.1893,-4.06216 c 0.0528,-0.0941 -0.0136,-0.16924 -0.0977,-0.23249 -0.0986,-0.0743 -0.20055,-0.12212 -0.24741,-0.21312 -0.0631,-0.12288 -0.0362,-0.26291 0.0388,-0.4103 0.5041,-0.0732 0.66038,0.58963 0.30628,0.85591 z m -1.58335,0.39537 c -0.10827,-0.11545 -0.0352,-0.26176 0.0672,-0.39829 0.12117,-0.16175 0.25567,-0.28514 0.2951,-0.44517 0.0522,-0.2168 -0.034,-0.41373 -0.19368,-0.5984 -0.76802,0.14454 -0.77933,1.2203 -0.16867,1.44186 z m -4.17933,-9.07149 c -0.10828,-0.11533 -0.25821,-0.051 -0.40116,0.0428 -0.16917,0.11119 -0.29954,0.23801 -0.46275,0.26697 -0.21941,0.04 -0.41075,-0.058 -0.58456,-0.22837 0.19135,-0.75804 1.26419,-0.70463 1.44847,-0.0815 z m 1.16073,2.82726 c -0.13641,0.0805 -0.10618,0.24157 -0.0448,0.40096 0.0719,0.18905 0.16765,0.34438 0.1613,0.50905 -0.01,0.22309 -0.1467,0.38846 -0.35073,0.52214 -0.69868,-0.35004 -0.41367,-1.38719 0.2342,-1.43215 z m -7.017844,0 c 0.135767,0.0805 0.105657,0.24157 0.0443,0.40096 -0.0719,0.18905 -0.16758,0.34438 -0.16129,0.50905 0.01,0.22309 0.14669,0.38846 0.350597,0.52214 0.698797,-0.35004 0.413797,-1.38719 -0.233567,-1.43215"
         id="path8831" />
      <g
         aria-label="Árvore da Vida"
         id="text8032"
         style="font-weight:bold;font-size:7.18394px;line-height:1.25;font-family:Cinzel;-inkscape-font-specification:'Cinzel, Bold';letter-spacing:0px;word-spacing:0px;stroke-width:0.598661">
        <path
           d="m 117.20113,142.38617 c 0.47414,-0.11494 1.04167,-0.37356 1.47271,-0.64655 -0.0934,-0.25144 -0.23708,-0.4454 -0.48851,-0.5819 -0.3161,0.28017 -0.79024,0.7615 -1.03449,1.17817 z m 0.0934,0.30173 h -0.0647 c -0.0144,0.21552 -0.30172,0.83334 -0.35201,0.9411 l -1.65949,3.7572 c -0.15805,0.28735 -0.4023,0.4023 -0.60345,0.4023 h -0.0647 v 0.0718 h 1.53737 v -0.0647 h -0.0647 c -0.18678,0 -0.39512,-0.16523 -0.27299,-0.45259 l 0.36638,-0.89081 h 1.68823 l 0.35201,0.89081 c 0.10776,0.28736 -0.0934,0.45259 -0.28017,0.45259 h -0.0647 v 0.0647 h 2.29168 v -0.0718 h -0.0575 c -0.21552,0 -0.45977,-0.12213 -0.61782,-0.41667 z m -1.04886,3.46266 0.73277,-1.76007 0.70402,1.76007 z"
           id="path8867" />
        <path
           d="m 120.18964,143.54997 v 0.0718 h 0.0862 c 0.20834,0 0.37357,0.16523 0.38075,0.37357 v 3.41955 c -0.007,0.21552 -0.1796,0.38075 -0.38793,0.38075 h -0.079 v 0.0718 h 1.97559 v -0.0718 h -0.079 c -0.19396,0 -0.38793,-0.14368 -0.38793,-0.38793 v -3.55605 c 0.079,0 0.2227,-0.007 0.40949,0 0.24425,0.0144 0.73276,0.11494 0.76149,0.82615 0.007,0.1365 -0.007,0.24425 -0.0215,0.30173 -0.12213,0.60345 -0.45259,0.71121 -0.74713,0.71839 h -0.18678 v 0.0575 c 0.13649,0.007 0.30891,0.1365 0.43104,0.43822 0.0647,0.24426 0.32327,0.72558 0.48132,0.9842 0.34483,0.5388 0.71121,0.68966 1.48708,0.68966 h 0.60345 v -0.079 c -0.29455,0 -0.45259,-0.10058 -0.73995,-0.48851 -0.25144,-0.33046 -0.45977,-0.68966 -0.51724,-0.79742 -0.1365,-0.2227 -0.40949,-0.52443 -0.69685,-0.61063 0.71121,-0.10058 0.99857,-0.65374 0.99857,-1.1638 0,-0.89081 -0.76868,-1.17098 -1.5661,-1.17098 z"
           id="path8864" />
        <path
           d="m 127.73278,143.54997 v 0.0718 h 0.0575 c 0.16523,0 0.35201,0.14368 0.24425,0.40949 l -1.0273,2.33478 -1.00575,-2.33478 c -0.10058,-0.26581 0.079,-0.40949 0.24425,-0.40949 h 0.0575 v -0.0718 h -2.11208 v 0.0718 h 0.0503 c 0.19397,0 0.40949,0.10776 0.54598,0.38075 l 1.91093,3.95117 h 0.0647 c 0.0216,-0.20834 0.28736,-0.76868 0.33765,-0.87644 l 1.45834,-3.08191 c 0.14368,-0.26581 0.36638,-0.37357 0.55316,-0.37357 h 0.0503 v -0.0718 z"
           id="path8861" />
        <path
           d="m 131.59772,143.46377 c -1.52299,0 -2.54311,0.85488 -2.54311,2.24857 0,1.3865 1.02012,2.24139 2.54311,2.24139 1.523,0 2.54312,-0.85489 2.54312,-2.24139 0,-1.39369 -1.02012,-2.24857 -2.54312,-2.24857 z m 0,4.20978 c -0.86926,0 -1.43679,-0.75431 -1.43679,-1.96121 0,-1.21409 0.56753,-1.9684 1.43679,-1.9684 0.87644,0 1.43679,0.75431 1.43679,1.9684 0,1.2069 -0.56035,1.96121 -1.43679,1.96121 z"
           id="path8858" />
        <path
           d="m 134.60059,143.54997 v 0.0718 h 0.0862 c 0.20833,0 0.37356,0.16523 0.38075,0.37357 v 3.41955 c -0.007,0.21552 -0.1796,0.38075 -0.38794,0.38075 h -0.079 v 0.0718 h 1.97558 v -0.0718 h -0.079 c -0.19397,0 -0.38793,-0.14368 -0.38793,-0.38793 v -3.55605 c 0.079,0 0.2227,-0.007 0.40948,0 0.24425,0.0144 0.73276,0.11494 0.7615,0.82615 0.007,0.1365 -0.007,0.24425 -0.0216,0.30173 -0.12213,0.60345 -0.45259,0.71121 -0.74713,0.71839 h -0.18679 v 0.0575 c 0.1365,0.007 0.30891,0.1365 0.43104,0.43822 0.0647,0.24426 0.32328,0.72558 0.48132,0.9842 0.34483,0.5388 0.71121,0.68966 1.48708,0.68966 h 0.60345 v -0.079 c -0.29454,0 -0.45259,-0.10058 -0.73994,-0.48851 -0.25144,-0.33046 -0.45978,-0.68966 -0.51725,-0.79742 -0.13649,-0.2227 -0.40948,-0.52443 -0.69684,-0.61063 0.71121,-0.10058 0.99857,-0.65374 0.99857,-1.1638 0,-0.89081 -0.76868,-1.17098 -1.5661,-1.17098 z"
           id="path8855" />
        <path
           d="m 142.92677,146.54568 h -0.0718 c -0.18678,0.63218 -0.60345,1.02011 -1.2069,1.0273 h -0.86925 v -1.7026 h 0.82615 c 0.33764,0.0144 0.53879,0.25144 0.53879,0.56754 v 0.0503 h 0.079 v -1.51581 h -0.079 v 0.0431 c 0,0.32327 -0.20833,0.56034 -0.54598,0.56753 h -0.81896 v -1.73852 h 1.03448 c 0.41667,0 0.65374,0.26581 0.65374,0.67529 v 0.0718 h 0.079 v -1.14943 c -0.11494,0.0431 -0.48132,0.10776 -0.74713,0.10776 h -2.52874 v 0.0718 h 0.0862 c 0.20833,0 0.38793,0.16523 0.38793,0.38075 v 3.41237 c -0.007,0.21552 -0.1796,0.37357 -0.38793,0.37357 h -0.0862 v 0.0718 h 3.36208 0.0144 z"
           id="path8852" />
        <path
           d="m 145.03009,144.79156 v 0.0511 h 0.0614 c 0.15856,0 0.28642,0.11253 0.29154,0.27108 v 2.41922 c 0,0.15344 -0.12787,0.2813 -0.28642,0.2813 h -0.0614 v 0.0512 h 1.72363 c 1.09965,0 1.75944,-0.57284 1.75944,-1.53439 0,-0.96155 -0.65979,-1.5395 -1.75944,-1.5395 z m 1.09453,0.20458 h 0.57284 c 0.64444,0 1.03827,0.49612 1.03827,1.33492 0,0.83369 -0.39383,1.32469 -1.03827,1.32469 h -0.57284 z"
           style="font-size:5.11463px"
           id="path8849" />
        <path
           d="m 150.27258,144.65346 h -0.0409 c -0.0153,0.14321 -0.20458,0.54215 -0.24039,0.61887 l -1.05361,2.2709 c -0.0972,0.19436 -0.26085,0.27107 -0.38871,0.27107 h -0.0409 v 0.0512 h 1.01781 v -0.0512 h -0.0409 c -0.11253,0 -0.24551,-0.0972 -0.1739,-0.2813 l 0.20458,-0.47055 h 1.07919 l 0.19947,0.46544 c 0.0767,0.18412 -0.0563,0.28641 -0.1739,0.28641 h -0.0409 v 0.0512 h 1.5037 v -0.0512 h -0.0358 c -0.1432,0 -0.30687,-0.0818 -0.40405,-0.28641 z m -0.67002,2.20441 0.4552,-1.06384 0.45521,1.06384 z"
           style="font-size:5.11463px"
           id="path8846" />
        <path
           d="m 157.62242,142.83158 v 0.0718 h 0.0647 c 0.18678,0 0.39512,0.16523 0.27299,0.45259 l -1.26437,2.96696 -1.21409,-2.96696 c -0.10058,-0.28736 0.0862,-0.45259 0.27299,-0.45259 h 0.0647 v -0.0718 h -2.28449 v 0.0718 h 0.0575 c 0.20834,0 0.45259,0.12212 0.61064,0.41667 l 2.17673,4.68393 h 0.0647 c 0.0144,-0.20834 0.30172,-0.82616 0.35201,-0.93392 l 1.70259,-3.76438 c 0.15087,-0.28018 0.39512,-0.4023 0.60346,-0.4023 h 0.0647 v -0.0718 z"
           id="path8843" />
        <path
           d="m 161.15691,147.86034 v -0.0718 h -0.0862 c -0.22988,0 -0.40948,-0.15805 -0.41667,-0.37357 v -3.41237 c 0.007,-0.21552 0.18679,-0.38075 0.41667,-0.38075 h 0.079 v -0.0718 h -2.03306 v 0.0718 h 0.0862 c 0.2227,0 0.40948,0.16523 0.40948,0.38793 v 3.39801 c 0,0.2227 -0.18678,0.38075 -0.40948,0.38075 h -0.0862 v 0.0718 z"
           id="path8840" />
        <path
           d="m 161.58794,143.54997 v 0.0718 h 0.0862 c 0.22271,0 0.40231,0.15805 0.40949,0.38075 v 3.398 c 0,0.21552 -0.1796,0.39512 -0.4023,0.39512 h -0.0862 v 0.0718 h 2.42099 c 1.54455,0 2.47127,-0.8046 2.47127,-2.15518 0,-1.35058 -0.92672,-2.16237 -2.47127,-2.16237 z m 1.53736,0.28736 h 0.8046 c 0.90518,0 1.45834,0.69684 1.45834,1.87501 0,1.17098 -0.55316,1.86064 -1.45834,1.86064 h -0.8046 z"
           id="path8837" />
        <path
           d="m 168.95147,143.35601 h -0.0575 c -0.0215,0.20115 -0.28735,0.76149 -0.33764,0.86925 l -1.47989,3.18967 c -0.1365,0.27299 -0.36638,0.38075 -0.54598,0.38075 h -0.0575 v 0.0718 h 1.4296 v -0.0718 h -0.0575 c -0.15805,0 -0.34483,-0.13649 -0.24425,-0.39512 l 0.28735,-0.66092 h 1.51581 l 0.28018,0.65374 c 0.10776,0.25862 -0.079,0.4023 -0.24426,0.4023 h -0.0575 v 0.0718 h 2.11208 v -0.0718 h -0.0503 c -0.20115,0 -0.43103,-0.11494 -0.56753,-0.4023 z m -0.9411,3.09627 0.63937,-1.49426 0.63937,1.49426 z"
           id="path8834" />
      </g>
      <g
         aria-label="Confecção &amp; Estamparia"
         id="text8036"
         style="font-size:4.04543px;line-height:1.25;font-family:Comfortaa;-inkscape-font-specification:'Comfortaa, Normal';letter-spacing:0px;word-spacing:0px;stroke-width:0.337121">
        <path
           d="m 118.61636,154.9361 q -0.42882,0 -0.78886,-0.21845 -0.36004,-0.21846 -0.57445,-0.59064 -0.21036,-0.37218 -0.21036,-0.81313 0,-0.4369 0.21036,-0.80908 0.21036,-0.37218 0.5704,-0.59064 0.36005,-0.21845 0.79291,-0.21845 0.29127,0 0.52995,0.085 0.23868,0.085 0.46118,0.27105 0.0445,0.0324 0.0445,0.093 0,0.0324 -0.0162,0.0607 -0.0162,0.0243 -0.0445,0.0364 -0.008,0.0283 -0.0364,0.0445 -0.0283,0.0162 -0.0607,0.0162 -0.0607,0 -0.10114,-0.0364 -0.15777,-0.14159 -0.34386,-0.20632 -0.18609,-0.0647 -0.43286,-0.0647 -0.33982,0 -0.63109,0.18205 -0.29127,0.17799 -0.46522,0.4814 -0.16991,0.30341 -0.16991,0.65536 0,0.36005 0.16991,0.66345 0.16991,0.30341 0.46118,0.48141 0.29127,0.178 0.63513,0.178 0.44095,0 0.79695,-0.28318 0.0445,-0.0324 0.089,-0.0324 0.0607,0 0.10518,0.0445 0.0445,0.0405 0.0445,0.10923 0,0.0647 -0.0445,0.11327 -0.38027,0.34791 -0.99113,0.34791 z"
           id="path8828" />
        <path
           d="m 121.16902,154.91587 q -0.31959,0 -0.5785,-0.14563 -0.25486,-0.14564 -0.4005,-0.4005 -0.14563,-0.25891 -0.14563,-0.5785 0,-0.31959 0.14563,-0.57849 0.14564,-0.25891 0.4005,-0.40455 0.25891,-0.14563 0.5785,-0.14563 0.31959,0 0.57445,0.14563 0.25486,0.14564 0.4005,0.40455 0.14968,0.2589 0.14968,0.57849 0,0.31959 -0.14564,0.5785 -0.14563,0.25486 -0.40454,0.4005 -0.25486,0.14563 -0.57445,0.14563 z m 0,-0.28318 q 0.23463,0 0.42072,-0.10922 0.18609,-0.10923 0.29127,-0.29937 0.10518,-0.19418 0.10518,-0.43286 0,-0.24272 -0.10518,-0.43286 -0.10518,-0.19418 -0.29127,-0.30341 -0.18609,-0.10922 -0.42072,-0.10922 -0.23059,0 -0.42073,0.10922 -0.18609,0.10923 -0.29531,0.30341 -0.10518,0.19014 -0.10518,0.43286 0,0.23868 0.10518,0.43286 0.10922,0.19014 0.29531,0.29937 0.19014,0.10922 0.42073,0.10922 z"
           id="path8825" />
        <path
           d="m 123.94822,152.65852 q 0.28723,0 0.51377,0.12137 0.23059,0.12136 0.36004,0.35599 0.12946,0.23059 0.12946,0.55423 v 1.05181 q 0,0.0647 -0.0445,0.10923 -0.0445,0.0445 -0.10923,0.0445 -0.0688,0 -0.11327,-0.0445 -0.0445,-0.0445 -0.0445,-0.10923 v -1.05181 q 0,-0.36005 -0.20227,-0.54614 -0.19823,-0.19013 -0.52186,-0.19013 -0.19823,0 -0.36005,0.0769 -0.15777,0.0769 -0.25081,0.21441 -0.0931,0.1335 -0.0931,0.29936 v 1.19745 q 0,0.0688 -0.0445,0.11327 -0.0405,0.0405 -0.10922,0.0405 -0.0688,0 -0.11328,-0.0405 -0.0445,-0.0445 -0.0445,-0.11327 v -1.90135 q 0,-0.0688 0.0445,-0.11328 0.0445,-0.0445 0.11328,-0.0445 0.0688,0 0.10922,0.0445 0.0445,0.0445 0.0445,0.11328 v 0.13754 q 0.1335,-0.14968 0.32364,-0.23463 0.19013,-0.085 0.41263,-0.085 z"
           id="path8822" />
        <path
           d="m 126.61415,152.01934 q -0.267,0 -0.40454,0.178 -0.1335,0.178 -0.1335,0.47332 v 0.093 h 0.48545 q 0.0647,0 0.10114,0.0405 0.0404,0.0364 0.0404,0.0971 0,0.0566 -0.0404,0.0971 -0.0364,0.0364 -0.10114,0.0364 h -0.48545 v 1.70312 q 0,0.0728 -0.0445,0.11732 -0.0405,0.0405 -0.11732,0.0405 -0.0647,0 -0.10922,-0.0405 -0.0405,-0.0445 -0.0405,-0.11732 v -1.70312 h -0.25891 q -0.0647,0 -0.10518,-0.0364 -0.0364,-0.0405 -0.0364,-0.0971 0,-0.0607 0.0364,-0.0971 0.0405,-0.0405 0.10518,-0.0405 h 0.25891 v -0.0769 q 0,-0.43286 0.2225,-0.69177 0.2225,-0.25891 0.62704,-0.25891 0.0688,0 0.11327,0.0405 0.0445,0.0404 0.0445,0.10113 0,0.0607 -0.0445,0.10114 -0.0445,0.0404 -0.11327,0.0404 z"
           id="path8819" />
        <path
           d="m 128.03004,152.66257 q 0.29937,0 0.52996,0.14159 0.23059,0.13754 0.35599,0.38431 0.12946,0.24677 0.12946,0.56232 0,0.0647 -0.0405,0.10518 -0.0404,0.0364 -0.10518,0.0364 h -1.63435 q 0.0324,0.33172 0.25891,0.53804 0.22654,0.20632 0.56636,0.20632 0.14563,0 0.29127,-0.0486 0.14968,-0.0526 0.23868,-0.12945 0.0526,-0.0405 0.10922,-0.0405 0.0445,0 0.089,0.0324 0.0526,0.0485 0.0526,0.10922 0,0.0526 -0.0445,0.0931 -0.13349,0.11327 -0.33981,0.19013 -0.20632,0.0728 -0.39645,0.0728 -0.32364,0 -0.5785,-0.14159 -0.25486,-0.14563 -0.4005,-0.4005 -0.14159,-0.2589 -0.14159,-0.58254 0,-0.32768 0.1335,-0.58254 0.13755,-0.25891 0.37623,-0.4005 0.24272,-0.14563 0.55017,-0.14563 z m 0,0.27913 q -0.30745,0 -0.50972,0.19014 -0.20227,0.19013 -0.24677,0.50163 h 1.48063 q -0.0324,-0.3115 -0.22655,-0.50163 -0.19418,-0.19014 -0.49759,-0.19014 z"
           id="path8816" />
        <path
           d="m 130.47752,154.91587 q -0.31554,0 -0.56636,-0.14563 -0.25082,-0.14968 -0.39645,-0.40455 -0.14159,-0.2589 -0.14159,-0.57445 0,-0.32363 0.13754,-0.57849 0.13755,-0.25891 0.38027,-0.40455 0.24273,-0.14563 0.54614,-0.14563 0.50568,0 0.82122,0.38836 0.0324,0.0364 0.0324,0.0849 0,0.0647 -0.0688,0.11328 -0.0364,0.0243 -0.0769,0.0243 -0.0607,0 -0.11732,-0.0607 -0.12136,-0.1335 -0.267,-0.19823 -0.14563,-0.0688 -0.32363,-0.0688 -0.2225,0 -0.39646,0.10922 -0.17395,0.10519 -0.27104,0.29937 -0.093,0.19418 -0.093,0.4369 0,0.23868 0.10113,0.43286 0.10114,0.19014 0.28318,0.29937 0.18205,0.10922 0.41668,0.10922 0.32364,0 0.52186,-0.17395 0.0526,-0.0445 0.10923,-0.0445 0.0485,0 0.089,0.0324 0.0566,0.0486 0.0566,0.10923 0,0.0526 -0.0405,0.089 -0.29127,0.27104 -0.73627,0.27104 z"
           id="path8813" />
        <path
           d="m 133.60868,154.4466 q 0.0566,0.0486 0.0566,0.10923 0,0.0526 -0.0404,0.089 -0.24273,0.22654 -0.60277,0.26295 l -0.0566,0.1335 q 0.20227,0.0526 0.28722,0.14564 0.089,0.093 0.089,0.23059 0,0.11327 -0.0728,0.21036 -0.0728,0.0971 -0.19822,0.15372 -0.12541,0.0566 -0.27914,0.0566 -0.21036,0 -0.35195,-0.089 -0.14159,-0.089 -0.14159,-0.21036 0,-0.0607 0.0445,-0.10518 0.0445,-0.0445 0.10518,-0.0445 0.0769,0 0.14159,0.0849 0.0647,0.0971 0.20632,0.0971 0.093,0 0.15372,-0.0405 0.0607,-0.0405 0.0607,-0.11327 0,-0.0769 -0.0485,-0.12137 -0.0486,-0.0445 -0.16182,-0.0728 -0.0769,-0.0162 -0.11731,-0.0485 -0.0405,-0.0283 -0.0405,-0.0809 0,-0.0324 0.0202,-0.093 l 0.0404,-0.10114 q -0.267,-0.0404 -0.47736,-0.19418 -0.21036,-0.15777 -0.32768,-0.39241 -0.11327,-0.23868 -0.11327,-0.52186 0,-0.32363 0.13754,-0.57849 0.13755,-0.25891 0.38027,-0.40455 0.24273,-0.14563 0.54614,-0.14563 0.50568,0 0.82122,0.38836 0.0324,0.0364 0.0324,0.0849 0,0.0647 -0.0688,0.11328 -0.0364,0.0243 -0.0769,0.0243 -0.0607,0 -0.11732,-0.0607 -0.12136,-0.1335 -0.267,-0.19823 -0.14563,-0.0688 -0.32363,-0.0688 -0.2225,0 -0.39645,0.10922 -0.17396,0.10519 -0.27105,0.29937 -0.093,0.19418 -0.093,0.4369 0,0.23868 0.10113,0.43286 0.10114,0.19014 0.28318,0.29937 0.18205,0.10922 0.41668,0.10922 0.32364,0 0.52186,-0.17395 0.0526,-0.0445 0.10923,-0.0445 0.0485,0 0.089,0.0324 z"
           id="path8810" />
        <path
           d="m 135.31989,152.66257 q 0.31554,0 0.57041,0.14968 0.2589,0.14563 0.40454,0.40454 0.14968,0.25891 0.14968,0.57445 v 0.95068 q 0,0.0647 -0.0445,0.10923 -0.0445,0.0445 -0.11327,0.0445 -0.0688,0 -0.11327,-0.0405 -0.0445,-0.0445 -0.0445,-0.11327 v -0.24273 q -0.14159,0.19418 -0.36005,0.30746 -0.21845,0.10922 -0.4814,0.10922 -0.30746,0 -0.55827,-0.14563 -0.24677,-0.14968 -0.39241,-0.40455 -0.14159,-0.2589 -0.14159,-0.57445 0,-0.31554 0.14564,-0.57445 0.14968,-0.25891 0.40454,-0.40454 0.25891,-0.14968 0.57445,-0.14968 z m 0,1.97012 q 0.23059,0 0.41668,-0.10922 0.18609,-0.10923 0.29127,-0.29937 0.10923,-0.19418 0.10923,-0.43286 0,-0.23868 -0.10923,-0.42881 -0.10518,-0.19418 -0.29127,-0.30341 -0.18609,-0.11327 -0.41668,-0.11327 -0.23059,0 -0.42072,0.11327 -0.18609,0.10923 -0.29532,0.30341 -0.10518,0.19013 -0.10518,0.42881 0,0.23868 0.10518,0.43286 0.10923,0.19014 0.29532,0.29937 0.19013,0.10922 0.42072,0.10922 z m 0.42477,-2.27353 q -0.11327,0 -0.20227,-0.0364 -0.089,-0.0364 -0.19014,-0.0971 -0.0849,-0.0526 -0.13754,-0.0728 -0.0526,-0.0202 -0.10518,-0.0202 -0.14968,0 -0.267,0.14159 -0.0243,0.0364 -0.0607,0.0566 -0.0364,0.0202 -0.0728,0.0202 -0.0364,0 -0.0688,-0.0202 -0.0283,-0.0162 -0.0486,-0.0445 -0.0162,-0.0324 -0.0162,-0.0647 0,-0.0486 0.0283,-0.089 0.10114,-0.12946 0.23463,-0.19823 0.1335,-0.0728 0.27914,-0.0728 0.10923,0 0.19013,0.0324 0.0809,0.0324 0.18609,0.0971 0.0931,0.0566 0.13755,0.0769 0.0485,0.0202 0.10923,0.0202 0.1254,0 0.19822,-0.0809 0.0607,-0.0688 0.12541,-0.0688 0.0324,0 0.0647,0.0202 0.0728,0.0364 0.0728,0.11327 0,0.0445 -0.0324,0.089 -0.16182,0.19823 -0.42477,0.19823 z"
           id="path8807" />
        <path
           d="m 138.05864,154.91587 q -0.31959,0 -0.5785,-0.14563 -0.25486,-0.14564 -0.40049,-0.4005 -0.14564,-0.25891 -0.14564,-0.5785 0,-0.31959 0.14564,-0.57849 0.14563,-0.25891 0.40049,-0.40455 0.25891,-0.14563 0.5785,-0.14563 0.31959,0 0.57445,0.14563 0.25486,0.14564 0.4005,0.40455 0.14968,0.2589 0.14968,0.57849 0,0.31959 -0.14564,0.5785 -0.14563,0.25486 -0.40454,0.4005 -0.25486,0.14563 -0.57445,0.14563 z m 0,-0.28318 q 0.23463,0 0.42072,-0.10922 0.18609,-0.10923 0.29128,-0.29937 0.10518,-0.19418 0.10518,-0.43286 0,-0.24272 -0.10518,-0.43286 -0.10519,-0.19418 -0.29128,-0.30341 -0.18609,-0.10922 -0.42072,-0.10922 -0.23059,0 -0.42073,0.10922 -0.18609,0.10923 -0.29531,0.30341 -0.10518,0.19014 -0.10518,0.43286 0,0.23868 0.10518,0.43286 0.10922,0.19014 0.29531,0.29937 0.19014,0.10922 0.42073,0.10922 z"
           id="path8804" />
        <path
           d="m 143.30151,154.60033 q 0.0607,0.0607 0.0607,0.10923 0,0.0404 -0.0445,0.0849 -0.0486,0.0485 -0.10518,0.0485 -0.0526,0 -0.10114,-0.0485 l -0.44904,-0.44904 -0.0809,0.0849 q -0.22654,0.24273 -0.44904,0.36813 -0.2225,0.12541 -0.48545,0.12541 -0.39241,0 -0.623,-0.20631 -0.23059,-0.20632 -0.23059,-0.54614 0,-0.25081 0.15373,-0.46927 0.15777,-0.2225 0.49758,-0.48545 l 0.0486,-0.0404 -0.21845,-0.21846 q -0.27914,-0.27913 -0.27914,-0.61086 0,-0.18204 0.0931,-0.32768 0.093,-0.14968 0.25081,-0.23463 0.16182,-0.0849 0.36005,-0.0849 0.20227,0 0.36409,0.089 0.16586,0.089 0.2589,0.24273 0.0931,0.15373 0.0931,0.34386 -0.004,0.2225 -0.12541,0.40455 -0.12136,0.17799 -0.36813,0.37217 l -0.0405,0.0324 0.77672,0.77672 0.34386,-0.36409 q 0.0566,-0.0607 0.10519,-0.0607 0.0405,0 0.085,0.0404 0.0526,0.0445 0.0526,0.10114 0,0.0445 -0.0485,0.10114 l -0.34791,0.36813 z m -1.5939,-1.58986 0.0769,-0.0607 q 0.34791,-0.27509 0.34791,-0.57849 0,-0.17396 -0.11732,-0.29127 -0.11327,-0.12137 -0.31554,-0.12137 -0.178,0 -0.29937,0.11327 -0.12136,0.11328 -0.12136,0.27105 0,0.12541 0.0486,0.23059 0.0526,0.10518 0.15777,0.21441 z m 0.76458,1.14486 -0.80504,-0.80504 -0.0809,0.0607 q -0.2589,0.20632 -0.37622,0.38836 -0.11732,0.18205 -0.11732,0.37218 0,0.21846 0.14564,0.35196 0.14968,0.12945 0.41668,0.12945 0.19822,0 0.36813,-0.0971 0.16991,-0.10114 0.36409,-0.30745 z"
           id="path8801" />
        <path
           d="m 145.27163,154.89565 q -0.0647,0 -0.11328,-0.0445 -0.0445,-0.0485 -0.0445,-0.11328 v -2.84393 q 0,-0.0688 0.0445,-0.11328 0.0485,-0.0445 0.11328,-0.0445 h 1.8973 q 0.0688,0 0.11327,0.0445 0.0445,0.0445 0.0445,0.10923 0,0.0647 -0.0445,0.10923 -0.0445,0.0404 -0.11327,0.0404 h -1.73953 v 1.11654 h 1.26622 q 0.0688,0 0.11327,0.0445 0.0445,0.0445 0.0445,0.10923 0,0.0647 -0.0485,0.10922 -0.0445,0.0445 -0.10922,0.0445 h -1.26622 v 1.12868 h 1.73953 q 0.0688,0 0.11327,0.0445 0.0445,0.0404 0.0445,0.10518 0,0.0647 -0.0445,0.10923 -0.0445,0.0445 -0.11327,0.0445 z"
           id="path8798" />
        <path
           d="m 148.64551,154.91587 q -0.25081,0 -0.4814,-0.085 -0.23059,-0.085 -0.37218,-0.23868 -0.0405,-0.0486 -0.0405,-0.0931 0,-0.0688 0.0647,-0.12136 0.0485,-0.0364 0.10114,-0.0364 0.0688,0 0.11731,0.0566 0.0971,0.11327 0.25487,0.17395 0.16181,0.0607 0.35599,0.0607 0.28318,0 0.42477,-0.0971 0.14159,-0.0971 0.14564,-0.25486 0,-0.14564 -0.14159,-0.24273 -0.14159,-0.0971 -0.44904,-0.14563 -0.39646,-0.0647 -0.59468,-0.2225 -0.19418,-0.16182 -0.19418,-0.38836 0,-0.29532 0.22654,-0.45714 0.23059,-0.16181 0.57445,-0.16181 0.267,0 0.46523,0.093 0.19822,0.089 0.31959,0.25082 0.0324,0.0526 0.0324,0.093 0,0.0688 -0.0647,0.10923 -0.0283,0.0202 -0.0769,0.0202 -0.085,0 -0.14159,-0.0607 -0.19823,-0.22655 -0.54209,-0.22655 -0.2225,0 -0.356,0.0931 -0.1335,0.089 -0.1335,0.22654 0,0.14564 0.12541,0.23464 0.12541,0.085 0.445,0.13754 0.43286,0.0728 0.61895,0.23868 0.18609,0.16182 0.18609,0.40454 0,0.18609 -0.11327,0.33173 -0.10923,0.14564 -0.30745,0.22654 -0.19823,0.0809 -0.44905,0.0809 z"
           id="path8795" />
        <path
           d="m 151.02827,154.58415 q 0.0647,0 0.10518,0.0445 0.0404,0.0445 0.0404,0.11327 0,0.0647 -0.0485,0.10923 -0.0486,0.0445 -0.12136,0.0445 h -0.085 q -0.21441,0 -0.38431,-0.10114 -0.16991,-0.10518 -0.267,-0.27914 -0.0931,-0.17799 -0.0931,-0.40049 v -1.08013 h -0.26295 q -0.0647,0 -0.10518,-0.0364 -0.0364,-0.0405 -0.0364,-0.0971 0,-0.0607 0.0364,-0.0971 0.0405,-0.0405 0.10518,-0.0405 h 0.26295 v -0.62704 q 0,-0.0688 0.0405,-0.11327 0.0445,-0.0445 0.11327,-0.0445 0.0688,0 0.11327,0.0445 0.0445,0.0445 0.0445,0.11327 v 0.62704 h 0.45714 q 0.0647,0 0.10113,0.0405 0.0405,0.0364 0.0405,0.0971 0,0.0566 -0.0405,0.0971 -0.0364,0.0364 -0.10113,0.0364 h -0.45714 v 1.08013 q 0,0.20631 0.12136,0.33981 0.12137,0.12946 0.3115,0.12946 z"
           id="path8792" />
        <path
           d="m 152.68689,152.66257 q 0.31554,0 0.5704,0.14968 0.25891,0.14563 0.40455,0.40454 0.14968,0.25891 0.14968,0.57445 v 0.95068 q 0,0.0647 -0.0445,0.10923 -0.0445,0.0445 -0.11327,0.0445 -0.0688,0 -0.11328,-0.0405 -0.0445,-0.0445 -0.0445,-0.11327 v -0.24273 q -0.14159,0.19418 -0.36004,0.30746 -0.21845,0.10922 -0.48141,0.10922 -0.30745,0 -0.55827,-0.14563 -0.24677,-0.14968 -0.3924,-0.40455 -0.14159,-0.2589 -0.14159,-0.57445 0,-0.31554 0.14563,-0.57445 0.14968,-0.25891 0.40455,-0.40454 0.2589,-0.14968 0.57445,-0.14968 z m 0,1.97012 q 0.23059,0 0.41668,-0.10922 0.18609,-0.10923 0.29127,-0.29937 0.10922,-0.19418 0.10922,-0.43286 0,-0.23868 -0.10922,-0.42881 -0.10518,-0.19418 -0.29127,-0.30341 -0.18609,-0.11327 -0.41668,-0.11327 -0.23059,0 -0.42073,0.11327 -0.18609,0.10923 -0.29531,0.30341 -0.10518,0.19013 -0.10518,0.42881 0,0.23868 0.10518,0.43286 0.10922,0.19014 0.29531,0.29937 0.19014,0.10922 0.42073,0.10922 z"
           id="path8789" />
        <path
           d="m 156.74849,152.65852 q 0.23868,0 0.42073,0.11327 0.18609,0.11328 0.28722,0.32364 0.10519,0.20632 0.10519,0.4814 v 1.16509 q 0,0.0688 -0.0445,0.11327 -0.0405,0.0405 -0.10923,0.0405 -0.0688,0 -0.11327,-0.0405 -0.0445,-0.0445 -0.0445,-0.11327 v -1.16509 q 0,-0.28722 -0.14968,-0.45308 -0.14564,-0.16991 -0.38432,-0.16991 -0.25486,0 -0.41263,0.16991 -0.15778,0.1699 -0.15373,0.44499 v 0.008 1.16509 q 0,0.0688 -0.0445,0.11327 -0.0404,0.0405 -0.10923,0.0405 -0.0688,0 -0.11327,-0.0405 -0.0445,-0.0445 -0.0445,-0.11327 v -1.16509 q 0,-0.28722 -0.14968,-0.45308 -0.14563,-0.16991 -0.38431,-0.16991 -0.25082,0 -0.41264,0.16586 -0.16182,0.16586 -0.16182,0.42477 v 1.19745 q 0,0.0688 -0.0445,0.11327 -0.0404,0.0405 -0.10922,0.0405 -0.0688,0 -0.11327,-0.0405 -0.0445,-0.0445 -0.0445,-0.11327 v -1.90135 q 0,-0.0688 0.0445,-0.11328 0.0445,-0.0445 0.11327,-0.0445 0.0688,0 0.10922,0.0445 0.0445,0.0445 0.0445,0.11328 v 0.089 q 0.11328,-0.12946 0.267,-0.19823 0.15777,-0.0728 0.33982,-0.0728 0.2225,0 0.4005,0.10114 0.178,0.10113 0.28318,0.28318 0.11731,-0.18205 0.3034,-0.28318 0.19014,-0.10114 0.42477,-0.10114 z"
           id="path8786" />
        <path
           d="m 159.37397,152.66257 q 0.31555,0 0.57041,0.14968 0.25891,0.14563 0.40454,0.40454 0.14968,0.25891 0.14968,0.57445 0,0.31555 -0.14563,0.57445 -0.14159,0.25487 -0.39241,0.40455 -0.24677,0.14563 -0.55422,0.14563 -0.26296,0 -0.48141,-0.10922 -0.21845,-0.11328 -0.36004,-0.30746 v 1.18531 q 0,0.0688 -0.0445,0.11328 -0.0445,0.0445 -0.11328,0.0445 -0.0688,0 -0.11327,-0.0445 -0.0404,-0.0445 -0.0404,-0.11328 v -0.90617 q -0.004,-0.0121 -0.004,-0.0364 v -0.95068 q 0,-0.31554 0.14564,-0.57445 0.14968,-0.25891 0.40454,-0.40454 0.25891,-0.14968 0.57445,-0.14968 z m 0,1.97012 q 0.23059,0 0.41668,-0.10922 0.19014,-0.10923 0.29532,-0.29937 0.10922,-0.19418 0.10922,-0.43286 0,-0.23868 -0.10922,-0.42881 -0.10518,-0.19418 -0.29532,-0.30341 -0.18609,-0.11327 -0.41668,-0.11327 -0.23059,0 -0.41668,0.11327 -0.18609,0.10923 -0.29531,0.30341 -0.10518,0.19013 -0.10518,0.42881 0,0.0688 0.004,0.10114 0.004,0.008 0.004,0.0202 0.0405,0.31554 0.26295,0.51781 0.22654,0.20227 0.54613,0.20227 z"
           id="path8783" />
        <path
           d="m 162.11677,152.66257 q 0.31554,0 0.57041,0.14968 0.2589,0.14563 0.40454,0.40454 0.14968,0.25891 0.14968,0.57445 v 0.95068 q 0,0.0647 -0.0445,0.10923 -0.0445,0.0445 -0.11327,0.0445 -0.0688,0 -0.11327,-0.0405 -0.0445,-0.0445 -0.0445,-0.11327 v -0.24273 q -0.14159,0.19418 -0.36005,0.30746 -0.21845,0.10922 -0.4814,0.10922 -0.30746,0 -0.55827,-0.14563 -0.24677,-0.14968 -0.39241,-0.40455 -0.14159,-0.2589 -0.14159,-0.57445 0,-0.31554 0.14564,-0.57445 0.14968,-0.25891 0.40454,-0.40454 0.25891,-0.14968 0.57445,-0.14968 z m 0,1.97012 q 0.23059,0 0.41668,-0.10922 0.18609,-0.10923 0.29127,-0.29937 0.10923,-0.19418 0.10923,-0.43286 0,-0.23868 -0.10923,-0.42881 -0.10518,-0.19418 -0.29127,-0.30341 -0.18609,-0.11327 -0.41668,-0.11327 -0.23059,0 -0.42072,0.11327 -0.18609,0.10923 -0.29532,0.30341 -0.10518,0.19013 -0.10518,0.42881 0,0.23868 0.10518,0.43286 0.10923,0.19014 0.29532,0.29937 0.19013,0.10922 0.42072,0.10922 z"
           id="path8780" />
        <path
           d="m 164.84743,152.65852 q 0.1699,0 0.26699,0.0445 0.10114,0.0445 0.10114,0.12541 0,0.0243 -0.004,0.0364 -0.0162,0.0566 -0.0526,0.0769 -0.0324,0.0202 -0.093,0.0202 -0.0364,0 -0.12541,-0.008 -0.0324,-0.004 -0.0971,-0.004 -0.30341,0 -0.49759,0.16182 -0.19013,0.16182 -0.19013,0.42073 v 1.20958 q 0,0.0728 -0.0405,0.11327 -0.0404,0.0405 -0.11327,0.0405 -0.0728,0 -0.11327,-0.0405 -0.0405,-0.0404 -0.0405,-0.11327 v -1.9054 q 0,-0.0728 0.0405,-0.11327 0.0405,-0.0405 0.11327,-0.0405 0.0728,0 0.11327,0.0405 0.0405,0.0404 0.0405,0.11327 v 0.178 q 0.11731,-0.16991 0.29936,-0.26295 0.18204,-0.093 0.39241,-0.093 z"
           id="path8777" />
        <path
           d="m 165.92351,154.89565 q -0.0688,0 -0.11328,-0.0445 -0.0445,-0.0445 -0.0445,-0.11328 v -1.8973 q 0,-0.0688 0.0445,-0.11328 0.0445,-0.0445 0.11328,-0.0445 0.0688,0 0.10922,0.0445 0.0445,0.0445 0.0445,0.11328 v 1.8973 q 0,0.0688 -0.0445,0.11328 -0.0404,0.0445 -0.10922,0.0445 z m -0.004,-2.63358 q -0.093,0 -0.15777,-0.0647 -0.0607,-0.0647 -0.0607,-0.15777 0,-0.0971 0.0647,-0.15777 0.0647,-0.0607 0.15778,-0.0607 0.089,0 0.15372,0.0607 0.0647,0.0607 0.0647,0.15777 0,0.0931 -0.0647,0.15777 -0.0647,0.0647 -0.15777,0.0647 z"
           id="path8774" />
        <path
           d="m 167.87744,152.66257 q 0.31555,0 0.57041,0.14968 0.25891,0.14563 0.40454,0.40454 0.14968,0.25891 0.14968,0.57445 v 0.95068 q 0,0.0647 -0.0445,0.10923 -0.0445,0.0445 -0.11327,0.0445 -0.0688,0 -0.11327,-0.0405 -0.0445,-0.0445 -0.0445,-0.11327 v -0.24273 q -0.14159,0.19418 -0.36004,0.30746 -0.21846,0.10922 -0.48141,0.10922 -0.30745,0 -0.55827,-0.14563 -0.24677,-0.14968 -0.39241,-0.40455 -0.14159,-0.2589 -0.14159,-0.57445 0,-0.31554 0.14564,-0.57445 0.14968,-0.25891 0.40454,-0.40454 0.25891,-0.14968 0.57445,-0.14968 z m 0,1.97012 q 0.23059,0 0.41668,-0.10922 0.18609,-0.10923 0.29127,-0.29937 0.10923,-0.19418 0.10923,-0.43286 0,-0.23868 -0.10923,-0.42881 -0.10518,-0.19418 -0.29127,-0.30341 -0.18609,-0.11327 -0.41668,-0.11327 -0.23059,0 -0.42072,0.11327 -0.18609,0.10923 -0.29532,0.30341 -0.10518,0.19013 -0.10518,0.42881 0,0.23868 0.10518,0.43286 0.10923,0.19014 0.29532,0.29937 0.19013,0.10922 0.42072,0.10922 z"
           id="path8771" />
      </g>
    </g>
  </g>
</svg>
